<svg id="Capa_1" data-name="Capa 1" xmlns="http://www.w3.org/2000/svg" viewBox="0 0 1080 1080"><defs><style>.cls-1{fill:#9f7253;stroke:#9f7253;stroke-miterlimit:10;stroke-width:5px;}</style></defs><path class="cls-1" d="M466.68,635.26a18,18,0,0,1-3.5,2.69,3,3,0,0,1-2.89.14,12.89,12.89,0,0,1-2-1.08,15,15,0,0,1-2.09-2.63c-1-1.48-1.68-2.39-1.95-2.75a21.7,21.7,0,0,0-17.69-8.48,33.78,33.78,0,0,0-20.32,6.93,53.07,53.07,0,0,0-21.07,41.78q0,15.07,10,24.63t26.65,9.56A47.55,47.55,0,0,0,461,696.76a25.68,25.68,0,0,0,4.37-4.31,23.89,23.89,0,0,1,4-4,4.81,4.81,0,0,1,3.23-1.08,24.94,24.94,0,0,1,4.37.94q-5.78,11.31-19.31,17.56t-30.61,6.26q-17.1,0-28.94-9.55t-11.84-27.73A64.63,64.63,0,0,1,390.11,653a62.26,62.26,0,0,1,10.43-18.71,48.39,48.39,0,0,1,16.69-13A49.27,49.27,0,0,1,439,616.42Q459.83,616.42,466.68,635.26Z"/><path class="cls-1" d="M532.89,672.54,532.22,688q0,11.72,2.69,15.75a5,5,0,0,0,4.44,2.69,9.35,9.35,0,0,0,2.29-.4,4.8,4.8,0,0,1,4.71.8q-.95,4.71-9.42,4.71-5.79,0-7.67-4.84a35.54,35.54,0,0,1-2.15-9.09q-.68-5.45-1.08-7.46-8.74,16.68-17,20.32a23.43,23.43,0,0,1-9.69,1.88q-5.52,0-8.54-5.32t-3-15.54a74.86,74.86,0,0,1,3.36-21.46,53,53,0,0,1,9.83-19q6.47-7.74,14.13-7.74,11,0,14.67,9.15Q532.89,660.3,532.89,672.54Zm-33-4.38A130.77,130.77,0,0,0,497.1,682a82,82,0,0,0-1,11.58,17.19,17.19,0,0,0,2.09,8.68q2.08,3.63,5.45,3.63,7.26,0,14-13.73t6.72-25.57q0-7.67-4-12.65a8.76,8.76,0,0,0-7.07-3.22q-4.36,0-7.94,5A37.45,37.45,0,0,0,499.92,668.16Z"/><path class="cls-1" d="M564.92,611.44q.14,9.42.14,14.06c0,3.1,0,6.17-.07,9.22s-.2,8.95-.47,17.7-.45,15.68-.54,20.79a85.9,85.9,0,0,0,12.25-10.83q7.13-7.33,12.92-12.59,9.14-8.2,13.05-5c1,.81,1.3,1.57.94,2.29q-1.35,2.83-6.12,6.86t-11.24,9.16a77.92,77.92,0,0,0-10.23,9.42q9.83,1.34,15.75,11,2.55,4.44,5,8.88,6.18,11.71,13.45,15.88a8.47,8.47,0,0,1-6.19,2.69q-3.49,0-6.93-3.36a31.73,31.73,0,0,1-5.92-8.21q-2.49-4.85-5-9.69-5.79-11.7-13.46-11.71a8.81,8.81,0,0,0-6.19,2.36,6.73,6.73,0,0,0-2.56,4.91q0,16.15-.54,24c-1.25,1.7-2.6,2.55-4,2.55a4.76,4.76,0,0,1-1.49-.27q-3-1.2-2.89-5t.74-22.87q1.49-48.86,1.48-62.45,0-6.32,1.28-8.48a3.65,3.65,0,0,1,3.1-2.15A10.26,10.26,0,0,1,564.92,611.44Z"/><path class="cls-1" d="M625.34,684q-.27,2.68-.27,3.63,0,8.07,4.92,12.51a16.76,16.76,0,0,0,11.64,4.44,27.11,27.11,0,0,0,11-1.88,17.5,17.5,0,0,0,6.13-4q4.85-6,8.88-6a9.66,9.66,0,0,1,3.5.81q-1.35,6.58-10.16,12t-22.14,5.45a23.73,23.73,0,0,1-16.22-6q-6.8-6-6.79-16.35a51.53,51.53,0,0,1,4.1-20.12,46.37,46.37,0,0,1,11.84-16.69q7.74-6.93,15.75-6.93t12.92,3.3a10.88,10.88,0,0,1,4.91,9.62q0,11.71-10.43,19.31t-22.14,7.61A48.77,48.77,0,0,1,625.34,684Zm10.23-4.45a17.45,17.45,0,0,0,11.3-4,24.74,24.74,0,0,0,7.07-8.48,19.26,19.26,0,0,0,2.09-8.08,8.69,8.69,0,0,0-2.83-6.39,9.13,9.13,0,0,0-6.59-2.76q-6.74,0-12.45,9.29A66.21,66.21,0,0,0,626,678.32,49.75,49.75,0,0,0,635.57,679.53Z"/><path class="cls-1" d="M283.68,418.87v4.86q-8.7.25-13.17,1.82a9.34,9.34,0,0,0-6,5.83Q263,435.64,263,444.62V565.11c0,5.82.52,10.2,1.54,13.11a9,9,0,0,0,6,5.83,55.38,55.38,0,0,0,13.17,2v4.85q-5.9-.48-14.71-.6t-17.77-.13q-10,0-18.66.13t-14.07.6V586a55.38,55.38,0,0,0,13.17-2,9,9,0,0,0,6-5.83c1-2.91,1.53-7.29,1.53-13.11V431.51l1,.72L177.56,592.07h-4.09L109,434.42V562.68q0,8.75,1.66,13.72a11.14,11.14,0,0,0,6.65,7q5,2.07,15,2.56v4.85q-4.6-.48-12-.6t-14.06-.13q-6.41,0-12.92.13c-4.34.08-8,.28-10.86.6V586q8.68-.5,13.16-2.56a10.87,10.87,0,0,0,6-7q1.55-5,1.54-13.72V444.62q0-9-1.54-13.24a9.36,9.36,0,0,0-6-5.83q-4.47-1.57-13.16-1.82v-4.86c2.89.17,6.52.33,10.86.49s8.65.24,12.92.24q5.61,0,11.63-.24t10.1-.49l58,145.26-4.35,2L239.18,419.6h12q9,0,17.77-.24T283.68,418.87Z"/><path class="cls-1" d="M421.24,463.08V564.62q0,10.93,4.22,16.15T440.67,586v5.1q-7.94-.74-15.85-.73a131.48,131.48,0,0,0-14.19.73,55.64,55.64,0,0,0-12.4,2.67V565.11q-6.41,15.78-18,22.46a47.4,47.4,0,0,1-23.91,6.68,45.43,45.43,0,0,1-15.6-2.43,29.34,29.34,0,0,1-11-6.8,25.37,25.37,0,0,1-6.65-12.63,87.28,87.28,0,0,1-1.79-19.19v-61q0-10.92-4.09-16.15t-15.34-5.22v-5.1q8.18.72,15.85.72a113.45,113.45,0,0,0,14.19-.85,73.9,73.9,0,0,0,12.4-2.55v95.47a85.8,85.8,0,0,0,1,13.84,17.36,17.36,0,0,0,5.11,10.2q4.09,3.9,13.3,3.89,15.07,0,24.8-12.75t9.72-31.21V492.23q0-10.92-4.1-16.15t-15.34-5.22v-5.1q8.19.72,15.86.72a113.45,113.45,0,0,0,14.19-.85A74.11,74.11,0,0,0,421.24,463.08Z"/><path class="cls-1" d="M500.5,400.41V568.26q0,10.2,4.48,13.85t14.95,3.64v5.1c-2.9-.16-7.28-.36-13.17-.6s-11.8-.37-17.77-.37q-8.69,0-17.64.37t-13.29.6v-5.1q10.47,0,14.95-3.64t4.48-13.85V429.56q0-10.92-4.09-16.15t-15.34-5.22v-5.1q8.18.72,15.85.72A113.45,113.45,0,0,0,488.1,403,74.11,74.11,0,0,0,500.5,400.41Z"/><path class="cls-1" d="M573.37,592.55q-16.62,0-24.16-7.89t-7.54-21q0-10.2,5.24-16.88a40.41,40.41,0,0,1,13.42-10.94,120.06,120.06,0,0,1,17.26-7.28q9.07-3,17.26-5.95A57.46,57.46,0,0,0,608.27,516q5.24-3.64,5.24-9.23V491.75q0-10.2-3.19-15.55a15.81,15.81,0,0,0-8.57-7.17,37.34,37.34,0,0,0-12-1.82,60.44,60.44,0,0,0-13.68,1.7,20.58,20.58,0,0,0-11.64,7,15.41,15.41,0,0,1,8.44,4.86,14.14,14.14,0,0,1,3.58,9.95,12,12,0,0,1-4.09,9.6,15.48,15.48,0,0,1-10.48,3.52q-7.43,0-10.87-4.49a16.16,16.16,0,0,1-3.45-10.08q0-6.31,3.32-10.2a40.49,40.49,0,0,1,8.44-7.29,57.65,57.65,0,0,1,15.21-6.68,73.6,73.6,0,0,1,21.1-2.79,60.94,60.94,0,0,1,17.89,2.3,32.55,32.55,0,0,1,12.28,6.68,27.14,27.14,0,0,1,8.69,14.21,85.7,85.7,0,0,1,2,20v67.53c0,3.89.59,6.76,1.79,8.62s3.23,2.8,6.13,2.8a13,13,0,0,0,6.27-1.46,30.91,30.91,0,0,0,5.24-3.64l2.81,4.13A85.63,85.63,0,0,1,648.55,590c-3.25,1.7-7.59,2.55-13,2.55q-13.29,0-17.64-6.55a26.64,26.64,0,0,1-4.35-15.07q-8.18,12.89-18.53,17.25A55,55,0,0,1,573.37,592.55Zm11.25-9.71a30.07,30.07,0,0,0,15.09-4.25q7.41-4.25,13.8-14.21V516.77q-3.82,5.34-11.88,8.5T585,532.19a45.21,45.21,0,0,0-14.71,10.2q-6.13,6.45-6.13,18.34,0,11.17,5.88,16.64A20.55,20.55,0,0,0,584.62,582.84Z"/><path class="cls-1" d="M713.74,425.43V466h37.84v4.86H713.74v94q0,11.43,4.35,16t12,4.62a17.69,17.69,0,0,0,13.29-6q5.63-6,9.72-20l5.11,1.21q-2.55,14.1-10.1,23.81T725,594.25a42.31,42.31,0,0,1-14.32-2.06,30.57,30.57,0,0,1-10-6,29.81,29.81,0,0,1-7.8-13.36q-2.17-7.77-2.17-20.65V470.86H666.18V466h24.55V428.83q6.39-.24,12.27-1A51,51,0,0,0,713.74,425.43Z"/><path class="cls-1" d="M803.49,592.55q-16.63,0-24.16-7.89t-7.55-21q0-10.2,5.24-16.88a40.55,40.55,0,0,1,13.43-10.94,119.12,119.12,0,0,1,17.26-7.28q9.07-3,17.26-5.95A57.66,57.66,0,0,0,838.39,516q5.24-3.64,5.24-9.23V491.75q0-10.2-3.2-15.55a15.75,15.75,0,0,0-8.56-7.17,37.41,37.41,0,0,0-12-1.82,60.58,60.58,0,0,0-13.68,1.7,20.52,20.52,0,0,0-11.63,7,15.44,15.44,0,0,1,8.44,4.86,14.14,14.14,0,0,1,3.58,9.95,12,12,0,0,1-4.09,9.6A15.51,15.51,0,0,1,792,503.89q-7.41,0-10.87-4.49a16.16,16.16,0,0,1-3.45-10.08q0-6.31,3.33-10.2a40.42,40.42,0,0,1,8.43-7.29,57.58,57.58,0,0,1,15.22-6.68,73.58,73.58,0,0,1,21.09-2.79,61.06,61.06,0,0,1,17.9,2.3,32.58,32.58,0,0,1,12.27,6.68,27.15,27.15,0,0,1,8.7,14.21,85.75,85.75,0,0,1,2,20v67.53q0,5.83,1.79,8.62t6.14,2.8a12.92,12.92,0,0,0,6.26-1.46,31,31,0,0,0,5.25-3.64l2.81,4.13A84.91,84.91,0,0,1,878.66,590q-4.86,2.55-13,2.55-13.29,0-17.64-6.55a26.64,26.64,0,0,1-4.35-15.07q-8.19,12.89-18.54,17.25A54.86,54.86,0,0,1,803.49,592.55Zm11.25-9.71a30,30,0,0,0,15.08-4.25q7.42-4.25,13.81-14.21V516.77q-3.84,5.34-11.89,8.5t-16.62,6.92a45.16,45.16,0,0,0-14.7,10.2q-6.13,6.45-6.14,18.34,0,11.17,5.88,16.64A20.58,20.58,0,0,0,814.74,582.84Z"/><path class="cls-1" d="M948.46,462.36q10.23,0,17.39,3.15a49.46,49.46,0,0,1,10.48,5.83q8.45,6.56,10.23-8.74h5.88q-.51,6.79-.77,16.15t-.25,25.14h-5.88a75.83,75.83,0,0,0-5.25-17.49,34.7,34.7,0,0,0-10.86-14Q962.26,467,950.76,467q-9,0-15,4.74t-6,14a18.26,18.26,0,0,0,4.6,12.51,50.84,50.84,0,0,0,12,9.72q7.41,4.5,16.1,9.84A170.24,170.24,0,0,1,987.33,536q10.21,9.22,10.22,24.29,0,11.18-6.13,18.7a38.3,38.3,0,0,1-16,11.42,58.41,58.41,0,0,1-21.61,3.88,62.75,62.75,0,0,1-10.61-.85,53.48,53.48,0,0,1-9.59-2.55,48.92,48.92,0,0,1-5.24-2.91q-2.68-1.7-5.24-3.65t-4.6.13c-1.37,1.37-2.39,4.09-3.07,8.13H909.6q.51-7.77.76-18.94t.26-29.64h5.88a133.91,133.91,0,0,0,5.11,23.81q3.33,10.2,10.49,15.91T952,589.4a26.87,26.87,0,0,0,15.21-5.11q7.54-5.1,7.55-18a21.74,21.74,0,0,0-8.18-17.49A169.66,169.66,0,0,0,945.9,534.5q-9.2-5.58-17.26-11.18a52.25,52.25,0,0,1-13-12.63q-5-7-5-17,0-10.94,5.24-17.85a30.54,30.54,0,0,1,13.94-10.21A52.52,52.52,0,0,1,948.46,462.36Z"/></svg>