<svg id="Capa_1" data-name="Capa 1" xmlns="http://www.w3.org/2000/svg" viewBox="0 0 255 253"><defs><style>.cls-1{fill:none;stroke:#303030;stroke-miterlimit:10;stroke-width:3px;}</style></defs><path class="cls-1" d="M139.73,35.42V269.79a5.22,5.22,0,0,1-10.43,0V35.42H71.93a36.52,36.52,0,0,0-36.5,36.46V82.29a5.22,5.22,0,0,1-10.43,0V71.88A47,47,0,0,1,71.93,25H197.09A47,47,0,0,1,244,71.88V82.29a5.22,5.22,0,0,1-10.43,0V71.88a36.52,36.52,0,0,0-36.5-36.46ZM273.85,229.69a5.15,5.15,0,0,0-7.4,0l-32.86,32V132.19l32.34,32.29a5.23,5.23,0,0,0,3.65,1.56,5.07,5.07,0,0,0,3.65-1.56,5.17,5.17,0,0,0,0-7.4l-33.9-33.85a15.63,15.63,0,0,0-22.11,0l-33.9,33.85a5.24,5.24,0,1,0,7.41,7.4l32.33-32.29V261.56l-32.85-32a5.24,5.24,0,1,0-7.41,7.4l34.32,33.33a15.74,15.74,0,0,0,11,4.59h0a15.87,15.87,0,0,0,11-4.48L273.44,237a5.17,5.17,0,0,0,0-7.4Z" transform="translate(-23.5 -23.5)"/></svg>