<svg id="Capa_1" data-name="Capa 1" xmlns="http://www.w3.org/2000/svg" viewBox="0 0 253 253"><defs><style>.cls-1{fill:none;stroke:#303030;stroke-miterlimit:10;stroke-width:3px;}</style></defs><path class="cls-1" d="M228.12,25H71.88A47,47,0,0,0,25,71.88V228.12A47,47,0,0,0,71.88,275H228.12A47,47,0,0,0,275,228.12V71.88A47,47,0,0,0,228.12,25Zm36.46,46.88v72.91H155.21V35.42h72.91A36.49,36.49,0,0,1,264.58,71.88ZM71.88,35.42h72.91V144.79H35.42V71.88A36.49,36.49,0,0,1,71.88,35.42ZM35.42,228.12V155.21H144.79V264.58H71.88A36.49,36.49,0,0,1,35.42,228.12Zm192.7,36.46H155.21V155.21H264.58v72.91A36.49,36.49,0,0,1,228.12,264.58Z" transform="translate(-23.5 -23.5)"/></svg>