<svg id="Capa_1" data-name="Capa 1" xmlns="http://www.w3.org/2000/svg" viewBox="0 0 253 253"><defs><style>.cls-1{fill:none;stroke:#303030;stroke-miterlimit:10;stroke-width:3px;}</style></defs><path class="cls-1" d="M228.12,25H71.88A46.93,46.93,0,0,0,25,71.88V228.12A46.93,46.93,0,0,0,71.88,275H228.12A46.93,46.93,0,0,0,275,228.12V71.88A46.93,46.93,0,0,0,228.12,25Zm36.46,203.12a36.49,36.49,0,0,1-36.46,36.46H71.88a36.49,36.49,0,0,1-36.46-36.46V71.88A36.49,36.49,0,0,1,71.88,35.42H228.12a36.49,36.49,0,0,1,36.46,36.46ZM178.46,84.71l-90.7,90.7a36.2,36.2,0,0,0-10.68,25.78v16.52a5.22,5.22,0,0,0,5.21,5.21H98.81a36.74,36.74,0,0,0,25.78-10.68l90.7-90.7a26,26,0,0,0,0-36.82c-9.82-9.84-27-9.84-36.82,0ZM117.22,204.86a26.16,26.16,0,0,1-18.42,7.63H87.49V201.18a25.91,25.91,0,0,1,7.62-18.42L163.91,114,186,136.06l-68.79,68.79Zm90.7-90.69-14.54,14.54-22.1-22.1,14.54-14.54a16,16,0,0,1,22.1,0A15.65,15.65,0,0,1,207.92,114.17Z" transform="translate(-23.5 -23.5)"/></svg>