<svg id="Capa_1" data-name="Capa 1" xmlns="http://www.w3.org/2000/svg" viewBox="0 0 100 100"><path d="M50,1A49,49,0,1,0,99,50,49.08,49.08,0,0,0,50,1Zm0,95.38A46.36,46.36,0,1,1,96.36,50,46.42,46.42,0,0,1,50,96.36Z"/><path d="M50,100a50,50,0,1,1,50-50A50.06,50.06,0,0,1,50,100ZM50,2A48,48,0,1,0,98,50,48.09,48.09,0,0,0,50,2Zm0,95.38A47.34,47.34,0,1,1,97.34,50,47.4,47.4,0,0,1,50,97.34ZM50,4.62A45.38,45.38,0,1,0,95.38,50,45.43,45.43,0,0,0,50,4.62Z"/><path d="M42.29,28.29a1.88,1.88,0,0,0-1.35-.55,1.8,1.8,0,0,0-1.27.53,1.86,1.86,0,0,0-.55,1.32,1.81,1.81,0,0,0,.54,1.3L56.15,47.55a3.57,3.57,0,0,1,0,4.91L39.66,69.1a1.86,1.86,0,0,0,0,2.63,1.87,1.87,0,0,0,1.31.54,1.85,1.85,0,0,0,1.31-.56L58.78,55.07a7.18,7.18,0,0,0,0-10.14Z"/><path d="M41,73.25a2.81,2.81,0,0,1-2-.83,2.74,2.74,0,0,1-.84-2,2.85,2.85,0,0,1,.82-2L55.45,51.77a2.59,2.59,0,0,0,0-3.53L39,31.58a2.76,2.76,0,0,1-.82-2,2.83,2.83,0,0,1,2.8-2.84A3,3,0,0,1,43,27.6L59.48,44.24a8.16,8.16,0,0,1,0,11.53L43,72.4A2.86,2.86,0,0,1,41,73.25Zm0-44.53a.84.84,0,0,0-.57.25.85.85,0,0,0-.26.62.85.85,0,0,0,.25.61l16.5,16.66a4.54,4.54,0,0,1,0,6.29L40.35,69.79a.91.91,0,0,0-.25.63.86.86,0,0,0,.25.61.88.88,0,0,0,1.24,0L58.08,54.38a6.19,6.19,0,0,0,0-8.76L41.6,29A.94.94,0,0,0,40.93,28.72Z"/></svg>