<svg id="Capa_1" data-name="Capa 1" xmlns="http://www.w3.org/2000/svg" viewBox="0 0 50 50"><defs><style>.cls-1{fill:#303030;stroke:#303030;stroke-miterlimit:10;stroke-width:0.5px;}</style></defs><path class="cls-1" d="M38.74,33.26c-1,.1-1.94.23-2.81.39a6.38,6.38,0,0,0-.74-1.74,6,6,0,0,0-2.34-2.21,6.54,6.54,0,0,0-3.29-.79c-.36,0-.75,0-1.15.06a12.17,12.17,0,0,0,2.93-2,4.35,4.35,0,0,0,1.52-3.05,3.41,3.41,0,0,0-.11-.77,2.19,2.19,0,0,0-.62-1,2.91,2.91,0,0,0-.61-.45l-1.07,1.11a1.51,1.51,0,0,1,.42,1.16c0,.11,0,.23,0,.36a6.51,6.51,0,0,1-1.57,3,7.15,7.15,0,0,1-2.93,2.17l-.77.3c0-.69.07-1.37.1-2l-2,2.1q-.15,3.18-.27,7.44v0a.72.72,0,0,0,.48.52,1.13,1.13,0,0,0,.45.09l.28,0a.91.91,0,0,0,.68-.54.53.53,0,0,0,0-.14c.05-1.84.13-4.19.26-7l1.21-.47a6.09,6.09,0,0,1,1.84-.36,5.44,5.44,0,0,1,3.28.94A5.23,5.23,0,0,1,34,34.05,17.89,17.89,0,0,0,29.17,36a8.38,8.38,0,0,0-2.64,2.34,3.87,3.87,0,0,0-.77,2.14,2.53,2.53,0,0,0,.09.7,2.35,2.35,0,0,0,1.8,1.68,2.87,2.87,0,0,0,.85.11,6.68,6.68,0,0,0,2.07-.43,10.37,10.37,0,0,0,3.11-2,6.79,6.79,0,0,0,2.45-5.2A6.28,6.28,0,0,0,36,34c.86-.16,1.78-.29,2.77-.38a.16.16,0,0,0,.16-.18A.18.18,0,0,0,38.74,33.26ZM34,36.13a7.17,7.17,0,0,1-2.31,4,7.68,7.68,0,0,1-1.3.92,6.76,6.76,0,0,1-1.66.71,3.59,3.59,0,0,1-.84.11l-.39,0a1.61,1.61,0,0,1-1.33-1.4,3.55,3.55,0,0,1,.69-1.94,8.11,8.11,0,0,1,2.55-2.23,17.34,17.34,0,0,1,4.69-1.84,3.55,3.55,0,0,1,0,.46A6.53,6.53,0,0,1,34,36.13Z"/><path class="cls-1" d="M15,35c1.51-1.81,3.09-3.55,4.7-5.26s3.24-3.4,4.9-5.06,3.34-3.3,5.06-4.9,3.45-3.19,5.26-4.69c-1.51,1.81-3.09,3.55-4.69,5.26s-3.24,3.4-4.9,5.06-3.34,3.3-5.06,4.9S16.86,33.45,15,35Z"/><path class="cls-1" d="M15.9,26.14a27.25,27.25,0,0,0,1.92-6.78c.08-.4.15-.81.22-1.24a28.1,28.1,0,0,1,6.4-1.77Q24,20.72,24,22.81l2-2.07c.07-1.27.19-2.82.36-4.67l2-.2a.14.14,0,0,0,.12-.06.21.21,0,0,0,.05-.13.19.19,0,0,0-.2-.19l-1.95.2.29-3.13c.2-2.08.34-3.71.42-4.91V7.56a.9.9,0,0,0-.92-.48,1.27,1.27,0,0,0-.44.08.93.93,0,0,0-.57.62Q25.1,9.16,24.47,16a28.89,28.89,0,0,0-6.35,1.73,70.22,70.22,0,0,0,.8-7.65v-.3a2.69,2.69,0,0,0-.74-2.06,1.34,1.34,0,0,0-.92-.32,3.29,3.29,0,0,0-1.63.57l-.05,0a12.06,12.06,0,0,0-2.95,3.76.16.16,0,0,0,0,.09.19.19,0,0,0,.34.11A22.9,22.9,0,0,1,14.6,9.43c.72-.89,1.28-1.34,1.68-1.34.21,0,.38.15.51.44A3.32,3.32,0,0,1,17,9.81c0,.12,0,.24,0,.35v0a71.57,71.57,0,0,1-1,8.52,10.78,10.78,0,0,0-4.12,3.83,5.91,5.91,0,0,0-.85,2.9,3.88,3.88,0,0,0,.06.7A2.11,2.11,0,0,0,12,27.55l0,0a2.61,2.61,0,0,0,1.3.35,2.76,2.76,0,0,0,.9-.16A3.37,3.37,0,0,0,15.9,26.14Zm-3.29,1.21c-.56,0-.93-.45-1.12-1.3a3.06,3.06,0,0,1-.06-.63,6.3,6.3,0,0,1,.12-1.07,5.9,5.9,0,0,1,.67-1.63,10.28,10.28,0,0,1,3.72-3.54l0,.27A27.13,27.13,0,0,1,14,26.1C13.53,26.93,13.06,27.34,12.61,27.35Z"/></svg>