<svg id="Capa_1" data-name="Capa 1" xmlns="http://www.w3.org/2000/svg" viewBox="0 0 50 50"><defs><style>.cls-1{opacity:0.5;}.cls-2{fill:#303030;}</style></defs><g id="Principal"><g id="Hi" class="cls-1"><g id="i"><path class="cls-2" d="M40.6,10.93a1.8,1.8,0,0,0-2-1.48,3,3,0,0,0-2,1.27,3,3,0,0,0-2-1.27,1.8,1.8,0,0,0-2,1.48A3.29,3.29,0,0,0,34,13.77a7.49,7.49,0,0,0,2.43,1.44l.2.06.2-.06a7.38,7.38,0,0,0,2.43-1.44A3.25,3.25,0,0,0,40.6,10.93Z"/><rect class="cls-2" x="33.72" y="17.33" width="5.88" height="21.22" rx="2.94"/></g><path id="H" class="cls-2" d="M27.13,9.44h-.22a2.84,2.84,0,0,0-2.83,2.84v8.17H15.26V12.28a2.84,2.84,0,0,0-2.83-2.84h-.22a2.84,2.84,0,0,0-2.83,2.84V35.72a2.83,2.83,0,0,0,2.83,2.83h.22a2.83,2.83,0,0,0,2.83-2.83v-11h8.82v11a2.83,2.83,0,0,0,2.83,2.83h.22A2.83,2.83,0,0,0,30,35.72V12.28A2.84,2.84,0,0,0,27.13,9.44Z"/></g><g id="Party"><path id="Y" class="cls-2" d="M41.69,18.4a.67.67,0,0,1,.15.44.88.88,0,0,1-.12.44l-1.94,4v4.54a.68.68,0,0,1-.18.48.59.59,0,0,1-.44.2.57.57,0,0,1-.43-.2.68.68,0,0,1-.18-.48V23.25l-2.09-3.53a.87.87,0,0,1-.14-.43.62.62,0,0,1,.19-.45.58.58,0,0,1,.43-.18.53.53,0,0,1,.32.09,1.11,1.11,0,0,1,.23.3l1.65,2.69,1.62-3.2a.6.6,0,0,1,.55-.33A.49.49,0,0,1,41.69,18.4Z"/><path id="T" class="cls-2" d="M35.39,17.71a.88.88,0,0,1,.14.49.85.85,0,0,1-.14.48.46.46,0,0,1-.34.14H33v6.12a.51.51,0,0,1-.15.37.78.78,0,0,1-.47.15.78.78,0,0,1-.48-.15.51.51,0,0,1-.15-.37V18.82h-2a.48.48,0,0,1-.35-.14.84.84,0,0,1-.13-.48.88.88,0,0,1,.13-.49.48.48,0,0,1,.35-.13h5.33A.45.45,0,0,1,35.39,17.71Z"/><path id="R" class="cls-2" d="M35.82,28.17A2.44,2.44,0,0,0,35.13,27a2.72,2.72,0,0,0-1.86-.63,3.83,3.83,0,0,0-1.26.19,5.28,5.28,0,0,0-1.39.69c-1.23-1.53-2.42-2.48-2.93-3.52l.07,0a2.71,2.71,0,0,0,1.09-.94,2.48,2.48,0,0,0,.39-1.38A2.62,2.62,0,0,0,28.85,20a2.7,2.7,0,0,0-1.09-1,3.57,3.57,0,0,0-1.59-.35h-2.4a.67.67,0,0,0-.44.15.52.52,0,0,0-.18.4v9.11a.48.48,0,0,0,.18.39.64.64,0,0,0,.44.17.61.61,0,0,0,.45-.17.48.48,0,0,0,.18-.39V24h1.68c.09.21.27.71,2.94,3.81l.22.26L28,29c-2.41,1.71-2.82,2.12-4.33,3.06a8.13,8.13,0,0,1-2.09,1.11c-1.46.39-3.62.28-4.29-1a2.33,2.33,0,0,1-.14-1.62A2,2,0,0,1,18,29.39a1.82,1.82,0,0,1,1.35-.23c.34.08.94.37,1,.83a.62.62,0,0,1-.23.55c-.16.1-.34.07-.7,0s-.51-.16-.69-.1a.75.75,0,0,0-.41.46.85.85,0,0,0,0,.63c.22.54,1.23.78,2,.55a2.26,2.26,0,0,0,1.37-1.28,2.21,2.21,0,0,0-.1-1.66,2.32,2.32,0,0,0-.95-1,3.33,3.33,0,0,0-2.49-.36A3.51,3.51,0,0,0,16,29.45a3.58,3.58,0,0,0-.31,2.73,3.67,3.67,0,0,0,2,2.13,5,5,0,0,0,3,.4,8.69,8.69,0,0,0,2.83-.89,23.32,23.32,0,0,0,5.35-3.68c.51-.43.82-.73,1.24-1l.2.21c.6.53,2.31,2,4,1.55a2.37,2.37,0,0,0,1.44-1.17A2.28,2.28,0,0,0,35.82,28.17ZM24.4,19.67h1.77a1.92,1.92,0,0,1,1.34.49A1.61,1.61,0,0,1,28,21.39a1.51,1.51,0,0,1-.53,1.18,2,2,0,0,1-1.34.46H24.4ZM34.53,29c-.11.34-.53.47-.73.53a1.85,1.85,0,0,1-1.42-.18,2.28,2.28,0,0,1-.85-.83l-.11-.16c.84-.42,2-.87,2.7-.37A1,1,0,0,1,34.53,29Z"/><path id="A" class="cls-2" d="M22,24.44a.6.6,0,0,1-.18.44.59.59,0,0,1-.44.18A.6.6,0,0,1,21,25a.52.52,0,0,1-.22-.28l-.51-1.26H17.19l-1.3,3.14a.73.73,0,0,1-.24.28.58.58,0,0,1-.33.1.55.55,0,0,1-.44-.19.58.58,0,0,1-.18-.43.83.83,0,0,1,.06-.28l3.37-8a.61.61,0,0,1,.59-.42.58.58,0,0,1,.58.42l2.59,6.18A.85.85,0,0,1,22,24.44Zm-4.41-1.9h2.37l-1.18-3Z"/><path id="P" class="cls-2" d="M8.34,30.06a.6.6,0,0,1-.18-.44V19.28a.58.58,0,0,1,.18-.45.6.6,0,0,1,.44-.18h2.4a3.13,3.13,0,0,1,1.59.4,2.81,2.81,0,0,1,1.09,1.1,3.27,3.27,0,0,1,.39,1.6,3.06,3.06,0,0,1-.39,1.56,2.8,2.8,0,0,1-1.09,1.07,3.34,3.34,0,0,1-1.59.38H9.41v4.86a.6.6,0,0,1-.18.44.59.59,0,0,1-.45.19A.61.61,0,0,1,8.34,30.06Zm2.84-6.45a1.8,1.8,0,0,0,1.87-1.86,2,2,0,0,0-.53-1.4,1.8,1.8,0,0,0-1.34-.55H9.41v3.81Z"/></g></g></svg>