<svg id="Capa_1" data-name="Capa 1" xmlns="http://www.w3.org/2000/svg" viewBox="0 0 50 50"><defs><style>.cls-1{fill:#303030;}</style></defs><path class="cls-1" d="M43.4,21.64A18.76,18.76,0,0,0,37.24,11a19.4,19.4,0,0,0-3-2.1l-.76,1.33A17.19,17.19,0,0,1,42.2,25.13v.34c0,.51,0,1-.1,1.52a17.2,17.2,0,0,1-30.48,8.94l1.16-2h0l.88-1.53L25,12.76l1.75,3h0l.88,1.52h0l4.71,8.16L33.22,27l3.12,5.41H18.92L22,27l.88-1.52,3.83-6.63h0l-.88-1.53L20.28,27l-4,6.94H39l-.88-1.53L35,27l-.88-1.52-5.59-9.68h0l3.64-6.3h0l.77-1.33h0c-.47-.22-.94-.42-1.42-.6A18.73,18.73,0,0,0,8.85,34.61l.89-1.54A17.2,17.2,0,0,1,25,7.93a16.93,16.93,0,0,1,5.72,1l-3.09,5.35-1.75-3L25,9.7,11,33.93h0l-.38.65h0l-.84,1.47A18.73,18.73,0,0,0,43.64,27c0-.5.08-1,.09-1.52v-.34A18.27,18.27,0,0,0,43.4,21.64Z"/><circle class="cls-1" cx="25" cy="7.25" r="3.12"/><circle class="cls-1" cx="39.85" cy="35.3" r="3.12"/><circle class="cls-1" cx="10.24" cy="35.3" r="3.12"/></svg>