<svg id="Capa_1" data-name="Capa 1" xmlns="http://www.w3.org/2000/svg" viewBox="0 0 50 50"><defs><style>.cls-1{fill:#303030;}</style></defs><path class="cls-1" d="M21.71,30.57l-.16.12a.15.15,0,0,1-.13,0l-.09-.05a.39.39,0,0,1-.09-.11l-.09-.13a1,1,0,0,0-.8-.38,1.52,1.52,0,0,0-.91.31,2.42,2.42,0,0,0-.69.82,2.34,2.34,0,0,0-.26,1.06A1.48,1.48,0,0,0,19,33.32a1.67,1.67,0,0,0,1.19.43,2.12,2.12,0,0,0,1.31-.42,1.7,1.7,0,0,0,.2-.19,1.13,1.13,0,0,1,.18-.19.2.2,0,0,1,.14,0,.58.58,0,0,1,.2,0,1.74,1.74,0,0,1-.87.79,3.32,3.32,0,0,1-1.37.28,2,2,0,0,1-1.3-.43,1.5,1.5,0,0,1-.53-1.25,2.73,2.73,0,0,1,.17-1,2.63,2.63,0,0,1,.46-.84,2.25,2.25,0,0,1,1.73-.8A1.22,1.22,0,0,1,21.71,30.57Z"/><path class="cls-1" d="M19.93,34.27a2.28,2.28,0,0,1-1.46-.49,1.76,1.76,0,0,1-.62-1.44A3.19,3.19,0,0,1,18,31.28a2.94,2.94,0,0,1,.51-.92,2.37,2.37,0,0,1,.84-.65,2.44,2.44,0,0,1,1.08-.24,1.46,1.46,0,0,1,1.48,1l.06.15-.12.12-.21.16a.41.41,0,0,1-.36,0l-.14-.08a.74.74,0,0,1-.14-.17L21,30.56a1,1,0,0,0-1.36,0,2,2,0,0,0-.61.74,2,2,0,0,0-.23.94,1.23,1.23,0,0,0,.37.93,1.41,1.41,0,0,0,1,.36,1.85,1.85,0,0,0,1.16-.37l.16-.16a1.5,1.5,0,0,1,.22-.22.45.45,0,0,1,.32-.09,1.13,1.13,0,0,1,.24.05l.29.08-.14.27a2,2,0,0,1-1,.9A3.41,3.41,0,0,1,19.93,34.27Z"/><path class="cls-1" d="M24.68,32.24l0,.7a1.38,1.38,0,0,0,.12.7.23.23,0,0,0,.2.12h.1a.21.21,0,0,1,.22,0c0,.14-.17.21-.43.21a.33.33,0,0,1-.34-.21,1.45,1.45,0,0,1-.1-.41c0-.17,0-.28-.05-.34a2,2,0,0,1-.76.92,1.14,1.14,0,0,1-.43.08.43.43,0,0,1-.39-.24,1.45,1.45,0,0,1-.13-.7,3.36,3.36,0,0,1,.15-1,2.21,2.21,0,0,1,.44-.85.79.79,0,0,1,.63-.35.65.65,0,0,1,.66.41A2.5,2.5,0,0,1,24.68,32.24ZM23.2,32a5.44,5.44,0,0,0-.13.63,3.37,3.37,0,0,0,0,.52.8.8,0,0,0,.09.39.29.29,0,0,0,.25.16c.22,0,.43-.21.63-.62A2.63,2.63,0,0,0,24.3,32a.84.84,0,0,0-.18-.56.39.39,0,0,0-.32-.15.46.46,0,0,0-.36.23A1.86,1.86,0,0,0,23.2,32Z"/><path class="cls-1" d="M23.17,34.28a.68.68,0,0,1-.6-.36,1.71,1.71,0,0,1-.17-.83,3.52,3.52,0,0,1,.17-1,2.47,2.47,0,0,1,.49-.94,1.07,1.07,0,0,1,.82-.44.87.87,0,0,1,.89.57,2.56,2.56,0,0,1,.16,1l0,.71a1.16,1.16,0,0,0,.08.55.53.53,0,0,1,.47.09l.11.1,0,.14c0,.16-.16.41-.67.41a.58.58,0,0,1-.58-.37s0-.1,0-.15a1.33,1.33,0,0,1-.53.45A1.27,1.27,0,0,1,23.17,34.28Zm.63-2.77c-.05,0-.11.07-.15.12a1.51,1.51,0,0,0-.21.48c-.05.21-.09.4-.12.59a3,3,0,0,0,0,.49.53.53,0,0,0,.06.26c.11,0,.26-.08.43-.44a2.29,2.29,0,0,0,.28-1,.61.61,0,0,0-.13-.41A.12.12,0,0,0,23.8,31.51Z"/><path class="cls-1" d="M26.12,29.49c0,.29,0,.5,0,.64s0,.27,0,.41,0,.4,0,.8,0,.7,0,.93a4.14,4.14,0,0,0,.55-.49c.21-.22.4-.4.58-.56s.47-.32.58-.23.06.08.05.11a1.39,1.39,0,0,1-.28.31l-.5.41a2.8,2.8,0,0,0-.46.42,1,1,0,0,1,.7.5c.08.13.16.26.23.4a1.75,1.75,0,0,0,.6.71.37.37,0,0,1-.27.12.47.47,0,0,1-.32-.15,1.44,1.44,0,0,1-.26-.37L27.05,33c-.17-.35-.37-.52-.6-.52a.39.39,0,0,0-.28.1.31.31,0,0,0-.12.22c0,.49,0,.85,0,1.08a.24.24,0,0,1-.18.12l-.07,0a.21.21,0,0,1-.13-.22c0-.11,0-.46,0-1,.05-1.46.07-2.4.07-2.8a.79.79,0,0,1,.06-.38c0-.07.08-.1.14-.1Z"/><path class="cls-1" d="M25.85,34.26a.4.4,0,0,1-.15,0,.47.47,0,0,1-.3-.47c0-.11,0-.45,0-1,.05-1.48.07-2.4.07-2.79a1.05,1.05,0,0,1,.09-.51.42.42,0,0,1,.36-.22.8.8,0,0,1,.26.05l.16.07v.16c0,.29,0,.5,0,.64v.41c0,.14,0,.41,0,.8,0,.14,0,.26,0,.38l.11-.11c.22-.22.41-.42.59-.58.38-.34.69-.42.91-.23a.32.32,0,0,1,.11.41,1.25,1.25,0,0,1-.34.39c-.14.12-.31.26-.51.41l-.15.13a1.3,1.3,0,0,1,.46.47l.23.41a1.47,1.47,0,0,0,.51.61l.28.16-.23.24a.65.65,0,0,1-.94,0,1.58,1.58,0,0,1-.31-.44l-.23-.43c-.09-.18-.23-.39-.38-.39a.14.14,0,0,0-.11,0c0,.53-.05.89-.06,1.13V34l0,.06A.47.47,0,0,1,25.85,34.26ZM27.61,31Z"/><path class="cls-1" d="M28.83,32.75c0,.08,0,.14,0,.17a.74.74,0,0,0,.22.56.78.78,0,0,0,.53.2,1.16,1.16,0,0,0,.49-.09.58.58,0,0,0,.27-.18c.15-.18.28-.27.4-.27a.34.34,0,0,1,.16,0,.88.88,0,0,1-.46.54,1.86,1.86,0,0,1-1,.24,1.06,1.06,0,0,1-.73-.27.91.91,0,0,1-.3-.73,2.33,2.33,0,0,1,.18-.9,1.93,1.93,0,0,1,.53-.75,1.07,1.07,0,0,1,.71-.32,1,1,0,0,1,.58.15.5.5,0,0,1,.22.44,1,1,0,0,1-.47.86,1.63,1.63,0,0,1-1,.34Zm.46-.2a.79.79,0,0,0,.51-.18,1,1,0,0,0,.32-.38.87.87,0,0,0,.09-.36.4.4,0,0,0-.12-.29.44.44,0,0,0-.3-.12c-.2,0-.39.14-.56.42a3.11,3.11,0,0,0-.37.86A2,2,0,0,0,29.29,32.55Z"/><path class="cls-1" d="M29.44,34.21a1.33,1.33,0,0,1-.9-.33,1.2,1.2,0,0,1-.38-.92,2.48,2.48,0,0,1,.2-1,2.31,2.31,0,0,1,.6-.84,1.31,1.31,0,0,1,1.59-.19.74.74,0,0,1,.33.65,1.25,1.25,0,0,1-.57,1.06,1.89,1.89,0,0,1-1.14.39h-.09a.43.43,0,0,0,.13.26.74.74,0,0,0,.75.08.76.76,0,0,0,.19-.12c.26-.33.51-.43.83-.3l.2.07,0,.21a1.13,1.13,0,0,1-.58.7A2.07,2.07,0,0,1,29.44,34.21Zm-.25-1.91a.55.55,0,0,0,.45-.12.9.9,0,0,0,.25-.29.6.6,0,0,0,.07-.26.13.13,0,0,0-.05-.11c-.14-.14-.35.06-.47.25A2.84,2.84,0,0,0,29.19,32.3Z"/><path class="cls-1" d="M13.48,18.88v.22a1.73,1.73,0,0,0-.59.08.44.44,0,0,0-.27.26,2.1,2.1,0,0,0-.07.59v5.42a2.1,2.1,0,0,0,.07.59.41.41,0,0,0,.27.26,3,3,0,0,0,.59.09v.22a5.86,5.86,0,0,0-.66,0H11.18a5.29,5.29,0,0,0-.63,0v-.22a3,3,0,0,0,.59-.09.37.37,0,0,0,.27-.26,1.78,1.78,0,0,0,.07-.59v-6l0,0L8.71,26.66H8.53L5.64,19.58v5.76a2.07,2.07,0,0,0,.07.62.51.51,0,0,0,.3.31,2.3,2.3,0,0,0,.67.12v.22a4,4,0,0,0-.54,0H4.93a3.28,3.28,0,0,0-.49,0v-.22A1.83,1.83,0,0,0,5,26.27.46.46,0,0,0,5.3,26a2.07,2.07,0,0,0,.07-.62V20a1.78,1.78,0,0,0-.07-.59A.39.39,0,0,0,5,19.18a1.73,1.73,0,0,0-.59-.08v-.22l.49,0H6l.46,0,2.6,6.52-.19.09,2.58-6.58h1.34Z"/><path class="cls-1" d="M5.53,18.66H6l.45,0h.18L9,24.52l2.3-5.86h1.51l.65,0h.26v.72h-.24a1.91,1.91,0,0,0-.52.06.2.2,0,0,0-.11.11,1.44,1.44,0,0,0-.06.51v5.42a1.48,1.48,0,0,0,.06.51.16.16,0,0,0,.11.1,2,2,0,0,0,.53.08h.23v.73l-.27,0-.64,0H11.19l-.61,0-.28,0v-.73h.24a2.14,2.14,0,0,0,.53-.08.16.16,0,0,0,.11-.1,2,2,0,0,0,.05-.51V20.92l-2.34,6H8.36L5.89,20.85v4.49a1.91,1.91,0,0,0,.06.54A.22.22,0,0,0,6.1,26a1.84,1.84,0,0,0,.59.1h.24v.73l-.28,0-.51,0H4.93l-.46,0-.28,0v-.73h.24a1.31,1.31,0,0,0,.5-.1.21.21,0,0,0,.13-.16,1.87,1.87,0,0,0,.06-.54V20a1.91,1.91,0,0,0,0-.51A.22.22,0,0,0,5,19.41a1.91,1.91,0,0,0-.52-.06H4.19v-.73l.27,0,.48,0h.45M12,26.32h.48a.43.43,0,0,1-.11-.2,2,2,0,0,1-.09-.67V20a1.89,1.89,0,0,1,.09-.67.43.43,0,0,1,.11-.2h-.85l0,.08.17.11-.06.29v5.81a2,2,0,0,1-.08.67.55.55,0,0,1-.11.2Zm-6.51-.2a1,1,0,0,1-.13.2h.26A.69.69,0,0,1,5.51,26.12Zm3-.18.11.28.16-.4ZM5.74,19.16l2.74,6.71.26-.67L6.32,19.14H5.74Z"/><path class="cls-1" d="M19.66,20.86v4.57a1.17,1.17,0,0,0,.19.72.85.85,0,0,0,.69.24v.23a5.79,5.79,0,0,0-.72,0,4.26,4.26,0,0,0-.63,0,2.31,2.31,0,0,0-.56.12V25.45a2,2,0,0,1-.81,1,2.16,2.16,0,0,1-1.78.19,1.37,1.37,0,0,1-.49-.31,1.21,1.21,0,0,1-.3-.56,4.23,4.23,0,0,1-.08-.87V22.17a1.17,1.17,0,0,0-.18-.72.82.82,0,0,0-.69-.24V21A5.74,5.74,0,0,0,15,21c.22,0,.44,0,.64,0a3.07,3.07,0,0,0,.56-.12v4.29a4.09,4.09,0,0,0,0,.63.75.75,0,0,0,.23.45.83.83,0,0,0,.6.18,1.34,1.34,0,0,0,1.11-.57,2.28,2.28,0,0,0,.44-1.41V22.17a1.17,1.17,0,0,0-.18-.72.85.85,0,0,0-.69-.24V21a5.74,5.74,0,0,0,.71,0c.22,0,.43,0,.64,0A2.79,2.79,0,0,0,19.66,20.86Z"/><path class="cls-1" d="M18.38,27.09v-.76a1.79,1.79,0,0,1-.44.34,2.4,2.4,0,0,1-2,.21,1.54,1.54,0,0,1-.59-.36,1.43,1.43,0,0,1-.36-.69,4,4,0,0,1-.09-.92V22.17a.94.94,0,0,0-.13-.57.63.63,0,0,0-.49-.14h-.25v-.75l.27,0a6.24,6.24,0,0,0,1.3,0,2.55,2.55,0,0,0,.51-.11l.33-.09v4.62a3.57,3.57,0,0,0,0,.59.54.54,0,0,0,.15.31.65.65,0,0,0,.43.11,1.09,1.09,0,0,0,.91-.48,2,2,0,0,0,.39-1.25V22.17a1,1,0,0,0-.13-.57.65.65,0,0,0-.49-.14h-.25v-.75l.27,0a6.24,6.24,0,0,0,1.3,0,2.55,2.55,0,0,0,.51-.11l.32-.09v4.9a.93.93,0,0,0,.14.57.7.7,0,0,0,.49.14h.25v.75l-.28,0a6.27,6.27,0,0,0-1.3,0,1.93,1.93,0,0,0-.5.1Zm-3.22-5.82,0,0a1.42,1.42,0,0,1,.24.88v2.74a3.62,3.62,0,0,0,.08.81.88.88,0,0,0,.23.45,1,1,0,0,0,.4.24l.26.07-.08-.06a1.09,1.09,0,0,1-.31-.6,4.64,4.64,0,0,1,0-.67v-4l-.28.05Zm3.72,2.9v2.24l.28,0,.52,0,0,0a1.32,1.32,0,0,1-.25-.88V21.18l-.27.05-.52,0,0,0a1.42,1.42,0,0,1,.24.88Z"/><path class="cls-1" d="M23.23,18.05v7.54a.74.74,0,0,0,.2.62,1,1,0,0,0,.67.17v.23l-.59,0-.8,0-.79,0-.6,0v-.23a1.06,1.06,0,0,0,.67-.17.78.78,0,0,0,.2-.62V19.36a1.21,1.21,0,0,0-.18-.73.87.87,0,0,0-.69-.23v-.23l.71,0a4.49,4.49,0,0,0,.64,0A3.09,3.09,0,0,0,23.23,18.05Z"/><path class="cls-1" d="M24.35,26.87h-.27l-.58,0c-.52,0-1,0-1.57,0l-.6,0h-.26v-.74h.25a.81.81,0,0,0,.51-.11s.11-.12.11-.43V19.36a.92.92,0,0,0-.13-.57.63.63,0,0,0-.49-.14h-.25V17.9l.27,0a7,7,0,0,0,1.3,0,3.51,3.51,0,0,0,.51-.11l.33-.1v7.88c0,.31.07.4.1.43a.86.86,0,0,0,.52.11h.25Zm-2.17-8.42,0,0a1.38,1.38,0,0,1,.24.88v6.23a1.18,1.18,0,0,1-.2.73c.32,0,.63,0,.94,0a1.1,1.1,0,0,1-.2-.73V18.37l-.28,0Z"/><path class="cls-1" d="M26.5,26.68a1.49,1.49,0,0,1-1.09-.35,1.35,1.35,0,0,1-.34-.95,1.19,1.19,0,0,1,.24-.76,1.93,1.93,0,0,1,.6-.49,6.71,6.71,0,0,1,.78-.32l.77-.27a2.67,2.67,0,0,0,.61-.3.49.49,0,0,0,.23-.41v-.68a1.36,1.36,0,0,0-.14-.7.72.72,0,0,0-.39-.32,1.8,1.8,0,0,0-.54-.08,2.77,2.77,0,0,0-.61.08.89.89,0,0,0-.52.31.71.71,0,0,1,.38.22.69.69,0,0,1,.16.45.53.53,0,0,1-.19.43.67.67,0,0,1-.47.16.6.6,0,0,1-.49-.2.77.77,0,0,1-.15-.46.69.69,0,0,1,.15-.46,1.78,1.78,0,0,1,.38-.32,2.27,2.27,0,0,1,.68-.3,3.12,3.12,0,0,1,.95-.13,2.66,2.66,0,0,1,.8.11,1.17,1.17,0,0,1,.55.3,1.24,1.24,0,0,1,.4.63,3.9,3.9,0,0,1,.09.9v3a.71.71,0,0,0,.08.39.29.29,0,0,0,.27.12.61.61,0,0,0,.28-.06,1.31,1.31,0,0,0,.24-.17l.13.19-.46.29a1.38,1.38,0,0,1-.59.11.9.9,0,0,1-.79-.29,1.21,1.21,0,0,1-.2-.68,1.91,1.91,0,0,1-.83.78A2.47,2.47,0,0,1,26.5,26.68Zm.5-.43a1.34,1.34,0,0,0,.68-.2,1.87,1.87,0,0,0,.62-.63V23.28a1.15,1.15,0,0,1-.53.38L27,24a2.18,2.18,0,0,0-.66.46,1.16,1.16,0,0,0-.27.82,1,1,0,0,0,.26.75A.94.94,0,0,0,27,26.25Z"/><path class="cls-1" d="M29.29,26.93a1.15,1.15,0,0,1-1-.4,1.34,1.34,0,0,1-.12-.24,2,2,0,0,1-.6.43,2.8,2.8,0,0,1-1.07.21,1.68,1.68,0,0,1-1.27-.43,1.56,1.56,0,0,1-.41-1.12,1.44,1.44,0,0,1,.29-.91,2.13,2.13,0,0,1,.69-.56,4.92,4.92,0,0,1,.81-.34l.77-.27a2.27,2.27,0,0,0,.54-.26.23.23,0,0,0,.13-.21v-.68a1.11,1.11,0,0,0-.11-.57.4.4,0,0,0-.25-.21,1.9,1.9,0,0,0-1,0l-.11,0,.09.09a.88.88,0,0,1,.23.62.81.81,0,0,1-.27.62A1,1,0,0,1,26,23a.8.8,0,0,1-.68-.3,1,1,0,0,1-.21-.61.91.91,0,0,1,.21-.62,2,2,0,0,1,.43-.37,2.91,2.91,0,0,1,.75-.33,3.61,3.61,0,0,1,1.9,0,1.79,1.79,0,0,1,.64.35,1.49,1.49,0,0,1,.47.76,4.49,4.49,0,0,1,.1,1v3a.49.49,0,0,0,0,.25.46.46,0,0,0,.22,0,.9.9,0,0,0,.2-.14l.21-.18.42.62-.2.14a3.94,3.94,0,0,1-.49.31A1.55,1.55,0,0,1,29.29,26.93Zm-.74-2.08v.86a.91.91,0,0,0,.16.54c.1.15.37.18.58.18h0a.35.35,0,0,1-.08-.1,1,1,0,0,1-.12-.52v-3a3.43,3.43,0,0,0-.09-.84,1,1,0,0,0-.31-.51,1.46,1.46,0,0,0-.41-.23l.09.14a1.58,1.58,0,0,1,.18.82Zm-2.41-.55-.11.05a1.71,1.71,0,0,0-.52.43.88.88,0,0,0-.19.6,1.06,1.06,0,0,0,.27.77,1.36,1.36,0,0,0,1,.28,1,1,0,0,1-.41-.25,1.19,1.19,0,0,1-.34-.93A1.42,1.42,0,0,1,26.14,24.3Zm3.49,1.76ZM28.05,23.8l-.19.09c-.24.09-.48.2-.74.31a1.82,1.82,0,0,0-.58.4.94.94,0,0,0-.2.65.78.78,0,0,0,.18.57.89.89,0,0,0,1,0,1.56,1.56,0,0,0,.49-.5Zm-2.26-2.16-.11.11a.42.42,0,0,0-.09.29.47.47,0,0,0,.1.3s.08.11.29.11a.45.45,0,0,0,.31-.1.27.27,0,0,0,.1-.24.37.37,0,0,0-.1-.28.43.43,0,0,0-.24-.14Z"/><path class="cls-1" d="M32.81,19.17V21h1.7v.21h-1.7v4.23a1.05,1.05,0,0,0,.19.72.7.7,0,0,0,.54.21.8.8,0,0,0,.6-.27,2.34,2.34,0,0,0,.44-.9l.23.05a2.42,2.42,0,0,1-.46,1.07,1.23,1.23,0,0,1-1,.44,1.93,1.93,0,0,1-.64-.09,1.68,1.68,0,0,1-.45-.27,1.4,1.4,0,0,1-.35-.6,3.82,3.82,0,0,1-.1-.93V21.21h-1.1V21h1.1V19.33l.55,0A2.35,2.35,0,0,0,32.81,19.17Z"/><path class="cls-1" d="M33.31,27a2.2,2.2,0,0,1-.73-.11,1.6,1.6,0,0,1-.53-.32,1.64,1.64,0,0,1-.42-.72,3.76,3.76,0,0,1-.11-1V21.46h-1.1v-.71h1.1V19.08h.24l.53,0a2.31,2.31,0,0,0,.43-.09l.34-.12v1.93h1.7v.71h-1.7v4a.88.88,0,0,0,.12.55.57.57,0,0,0,.78-.06,2.21,2.21,0,0,0,.38-.8l.06-.23.69.16,0,.24a2.59,2.59,0,0,1-.5,1.17A1.47,1.47,0,0,1,33.31,27ZM32,21v3.91a3.27,3.27,0,0,0,.09.86,1.16,1.16,0,0,0,.29.49.93.93,0,0,0,.35.21,1.06,1.06,0,0,0,.28.06.83.83,0,0,1-.21-.16,1.25,1.25,0,0,1-.26-.89V19.5l-.2,0-.34,0Z"/><path class="cls-1" d="M36.84,26.68a1.49,1.49,0,0,1-1.09-.35,1.35,1.35,0,0,1-.34-.95,1.19,1.19,0,0,1,.24-.76,1.93,1.93,0,0,1,.6-.49,6.71,6.71,0,0,1,.78-.32l.77-.27a2.67,2.67,0,0,0,.61-.3.49.49,0,0,0,.23-.41v-.68a1.47,1.47,0,0,0-.14-.7.72.72,0,0,0-.39-.32,1.8,1.8,0,0,0-.54-.08,2.77,2.77,0,0,0-.61.08.89.89,0,0,0-.52.31.71.71,0,0,1,.38.22.69.69,0,0,1,.16.45.53.53,0,0,1-.19.43.67.67,0,0,1-.47.16.6.6,0,0,1-.49-.2.77.77,0,0,1-.15-.46.69.69,0,0,1,.15-.46,1.78,1.78,0,0,1,.38-.32,2.27,2.27,0,0,1,.68-.3,3.12,3.12,0,0,1,1-.13,2.66,2.66,0,0,1,.8.11,1.22,1.22,0,0,1,.55.3,1.17,1.17,0,0,1,.39.63,3.39,3.39,0,0,1,.1.9v3a.71.71,0,0,0,.08.39.29.29,0,0,0,.27.12.61.61,0,0,0,.28-.06,1.77,1.77,0,0,0,.24-.17l.13.19-.46.29a1.38,1.38,0,0,1-.59.11.9.9,0,0,1-.79-.29,1.21,1.21,0,0,1-.2-.68,1.91,1.91,0,0,1-.83.78A2.47,2.47,0,0,1,36.84,26.68Zm.5-.43a1.34,1.34,0,0,0,.68-.2,1.87,1.87,0,0,0,.62-.63V23.28a1.15,1.15,0,0,1-.53.38l-.75.31a2.18,2.18,0,0,0-.66.46,1.16,1.16,0,0,0-.27.82,1,1,0,0,0,.26.75A.94.94,0,0,0,37.34,26.25Z"/><path class="cls-1" d="M39.63,26.93a1.15,1.15,0,0,1-1-.4c-.05-.08-.09-.16-.13-.24a1.82,1.82,0,0,1-.59.43,2.8,2.8,0,0,1-1.07.21,1.68,1.68,0,0,1-1.27-.43,1.56,1.56,0,0,1-.41-1.12,1.44,1.44,0,0,1,.29-.91,2.13,2.13,0,0,1,.69-.56,4.92,4.92,0,0,1,.81-.34l.77-.27a2.73,2.73,0,0,0,.54-.26.23.23,0,0,0,.13-.21v-.68a1.11,1.11,0,0,0-.11-.57.4.4,0,0,0-.25-.21,1.91,1.91,0,0,0-1,0l-.11,0,.09.09a.9.9,0,0,1,.23.62.81.81,0,0,1-.27.62,1,1,0,0,1-.64.22.8.8,0,0,1-.68-.3,1,1,0,0,1-.21-.61.91.91,0,0,1,.21-.62,2,2,0,0,1,.43-.37,2.76,2.76,0,0,1,.75-.33,3.71,3.71,0,0,1,1.9,0,1.79,1.79,0,0,1,.64.35,1.49,1.49,0,0,1,.47.76,4.49,4.49,0,0,1,.1,1v3a.49.49,0,0,0,0,.25.46.46,0,0,0,.22,0l.2-.14.21-.18.42.62-.2.14a3.94,3.94,0,0,1-.49.31A1.55,1.55,0,0,1,39.63,26.93Zm-.74-2.08v.86a.91.91,0,0,0,.16.54c.1.15.37.18.58.18h0a.39.39,0,0,1-.08-.1,1,1,0,0,1-.12-.52v-3a3.43,3.43,0,0,0-.09-.84,1,1,0,0,0-.31-.51,1.46,1.46,0,0,0-.41-.23l.09.14a1.58,1.58,0,0,1,.18.82Zm-2.41-.55-.11.05a1.71,1.71,0,0,0-.52.43.9.9,0,0,0-.19.6,1.06,1.06,0,0,0,.27.77,1.36,1.36,0,0,0,1,.28,1,1,0,0,1-.41-.25,1.19,1.19,0,0,1-.34-.93A1.41,1.41,0,0,1,36.48,24.3Zm1.91-.5-.19.09c-.24.09-.48.2-.74.31a1.82,1.82,0,0,0-.58.4.94.94,0,0,0-.2.65.78.78,0,0,0,.18.57.89.89,0,0,0,1,0,1.56,1.56,0,0,0,.49-.5Zm-2.26-2.16a.57.57,0,0,0-.11.11.42.42,0,0,0-.09.29.47.47,0,0,0,.1.3c0,.05.1.11.29.11a.45.45,0,0,0,.31-.1.3.3,0,0,0,.1-.24.37.37,0,0,0-.1-.28.43.43,0,0,0-.24-.14Z"/><path class="cls-1" d="M43.35,20.83a2,2,0,0,1,.78.14,2.39,2.39,0,0,1,.48.27c.25.19.4.06.45-.4h.27c0,.21,0,.45,0,.73s0,.65,0,1.13H45a3.78,3.78,0,0,0-.24-.79,1.66,1.66,0,0,0-.48-.63,1.39,1.39,0,0,0-.84-.24,1.08,1.08,0,0,0-.68.21.75.75,0,0,0-.27.63.81.81,0,0,0,.21.56,2.45,2.45,0,0,0,.54.44l.73.44a8,8,0,0,1,1.11.82,1.39,1.39,0,0,1,.46,1.09,1.27,1.27,0,0,1-.28.84,1.61,1.61,0,0,1-.71.51,2.59,2.59,0,0,1-1,.18,2.42,2.42,0,0,1-.47,0,2.7,2.7,0,0,1-.43-.11,1.49,1.49,0,0,1-.24-.14,1.88,1.88,0,0,1-.23-.16.14.14,0,0,0-.21,0,.68.68,0,0,0-.14.36h-.26c0-.23,0-.51,0-.85s0-.78,0-1.33h.27a5.7,5.7,0,0,0,.23,1.07,1.44,1.44,0,0,0,.47.71,1.39,1.39,0,0,0,.89.26,1.26,1.26,0,0,0,.69-.23.91.91,0,0,0,.34-.81,1,1,0,0,0-.37-.78,8.16,8.16,0,0,0-.93-.65c-.28-.16-.54-.33-.78-.5a2.42,2.42,0,0,1-.58-.57,1.27,1.27,0,0,1-.23-.76,1.25,1.25,0,0,1,.24-.8,1.37,1.37,0,0,1,.62-.46A2.32,2.32,0,0,1,43.35,20.83Z"/><path class="cls-1" d="M43.59,27a4.06,4.06,0,0,1-.51,0,2.42,2.42,0,0,1-.48-.13l-.28-.15-.17-.12,0,.15,0,.21h-.74l0-.26c0-.23,0-.51,0-.85s0-.77,0-1.32v-.25h.74l0,.22a6.08,6.08,0,0,0,.21,1,1.31,1.31,0,0,0,.39.6,1.21,1.21,0,0,0,.74.2,1,1,0,0,0,.55-.19.68.68,0,0,0,.23-.6.72.72,0,0,0-.28-.59,8.07,8.07,0,0,0-.9-.62c-.28-.17-.54-.34-.79-.51a3,3,0,0,1-.65-.63,1.55,1.55,0,0,1-.27-.91,1.53,1.53,0,0,1,.29-.95,1.51,1.51,0,0,1,.74-.54,2.56,2.56,0,0,1,1.81,0,3.14,3.14,0,0,1,.52.3h0c0-.05,0-.12,0-.24l0-.22h.76l0,.27c0,.2,0,.44,0,.72s0,.65,0,1.12V23h-.72l0-.21a2.78,2.78,0,0,0-.22-.73,1.27,1.27,0,0,0-.41-.53,1.1,1.1,0,0,0-.68-.19.77.77,0,0,0-.52.16.48.48,0,0,0-.18.43.57.57,0,0,0,.15.4,2.17,2.17,0,0,0,.48.38l.73.45a8.57,8.57,0,0,1,1.15.84,1.66,1.66,0,0,1,.54,1.28,1.54,1.54,0,0,1-.33,1,2.06,2.06,0,0,1-.82.59A3.08,3.08,0,0,1,43.59,27ZM42.41,21.3a1.11,1.11,0,0,0-.32.29,1,1,0,0,0-.19.65,1,1,0,0,0,.18.62,2,2,0,0,0,.53.51c.23.16.49.32.76.49a7.88,7.88,0,0,1,1,.66,1.26,1.26,0,0,1,.46,1,1.29,1.29,0,0,1-.24.82,1.39,1.39,0,0,0,.54-.41,1,1,0,0,0,.22-.68,1.14,1.14,0,0,0-.38-.91,7.76,7.76,0,0,0-1.08-.79l-.72-.44a3,3,0,0,1-.6-.48,1.11,1.11,0,0,1-.27-.73A1.09,1.09,0,0,1,42.41,21.3Zm-.51,4.3a1.93,1.93,0,0,0,0,.23,2.09,2.09,0,0,1,0,.26.49.49,0,0,1,.19-.07,2.06,2.06,0,0,1-.16-.37Zm3-4a1.83,1.83,0,0,1,.13.24l0,.06v-.31a.13.13,0,0,0,0-.06l-.09,0Zm-.06-.5Z"/></svg>