<svg id="Capa_1" data-name="Capa 1" xmlns="http://www.w3.org/2000/svg" viewBox="0 0 28.02 24.31"><defs><style>.cls-1{fill:#303030;}</style></defs><path class="cls-1" d="M11,29.22a14.69,14.69,0,0,1,1-5.41A18.62,18.62,0,0,1,14.75,19a19.13,19.13,0,0,1,3.92-3.76,18.21,18.21,0,0,1,4.48-2.42l.41.92a13.56,13.56,0,0,0-5.92,5.56,17.17,17.17,0,0,0-2.11,7.42A7,7,0,0,1,18,26.24a5.11,5.11,0,0,1,5.05,5,5.94,5.94,0,0,1-1.55,4.23,5.28,5.28,0,0,1-4,1.64,6,6,0,0,1-4.79-2.06A8.33,8.33,0,0,1,11,29.22ZM39,13.77a13.56,13.56,0,0,0-5.92,5.56A17.17,17.17,0,0,0,31,26.75a7,7,0,0,1,2.47-.51,5.11,5.11,0,0,1,5,5A5.94,5.94,0,0,1,37,35.51a5.28,5.28,0,0,1-4,1.64,6,6,0,0,1-4.79-2.06,8.33,8.33,0,0,1-1.7-5.87,14.89,14.89,0,0,1,1-5.41,19.1,19.1,0,0,1,6.65-8.54,18.21,18.21,0,0,1,4.48-2.42Z" transform="translate(-10.99 -12.85)"/></svg>