<svg id="Layer_1" data-name="Layer 1" xmlns="http://www.w3.org/2000/svg" viewBox="0 0 22.34 24"><defs><style>.cls-1{fill:#303030;}</style></defs><path class="cls-1" d="M19.47,8.72V7.85a7.47,7.47,0,0,0-14.94,0v.87a3.62,3.62,0,0,0-3.27,4.16l1,6.78a4.65,4.65,0,0,0,4.57,4H17.18a4.65,4.65,0,0,0,4.57-4l1-6.78a3.62,3.62,0,0,0-3.27-4.16ZM12,2a5.82,5.82,0,0,1,5.81,5.81v.83H6.19V7.85A5.82,5.82,0,0,1,12,2Zm9.1,10.6-1,6.78A3,3,0,0,1,17.18,22H6.83a3,3,0,0,1-2.94-2.53l-1-6.78A2,2,0,0,1,3.36,11a2,2,0,0,1,1.52-.7H19.12a2,2,0,0,1,1.52.7,2,2,0,0,1,.47,1.6Z" transform="translate(-0.83)"/><path class="cls-1" d="M17.18,24H6.82a5,5,0,0,1-4.95-4.28l-1-6.78A4,4,0,0,1,4.15,8.38V7.85a7.85,7.85,0,0,1,15.7,0v.53a4,4,0,0,1,3.27,4.56l-1,6.78A5,5,0,0,1,17.18,24ZM12,.77A7.09,7.09,0,0,0,4.92,7.85V9.07l-.35,0a3.24,3.24,0,0,0-2.93,3.73l1,6.78a4.27,4.27,0,0,0,4.19,3.62H17.18a4.26,4.26,0,0,0,4.19-3.62l1-6.78a3.31,3.31,0,0,0-.76-2.63,3.27,3.27,0,0,0-2.17-1.1l0-.38h-.37V7.85A7.09,7.09,0,0,0,12,.77Zm5.18,21.57H6.83a3.37,3.37,0,0,1-3.32-2.86l-1-6.78A2.37,2.37,0,0,1,4.88,10H19.12a2.39,2.39,0,0,1,2.37,2.74h0l-1,6.78A3.37,3.37,0,0,1,17.18,22.34ZM4.88,10.72a1.62,1.62,0,0,0-1.6,1.86l1,6.79a2.61,2.61,0,0,0,2.56,2.2H17.18a2.6,2.6,0,0,0,2.55-2.2l1-6.79a1.6,1.6,0,0,0-.38-1.29,1.63,1.63,0,0,0-1.23-.57ZM18.19,9.06H5.81V7.85a6.19,6.19,0,0,1,12.38,0ZM6.58,8.3H17.42V7.85a5.42,5.42,0,0,0-10.84,0Z" transform="translate(-0.83)"/></svg>