<svg id="Capa_1" data-name="Capa 1" xmlns="http://www.w3.org/2000/svg" viewBox="0 0 147.01 25.46"><defs><style>.cls-1{fill:#303030;}</style></defs><path class="cls-1" d="M141.88,25.46H5.13A5.13,5.13,0,0,1,0,20.34V5.13A5.13,5.13,0,0,1,5.13,0H141.88A5.13,5.13,0,0,1,147,5.13V20.34A5.13,5.13,0,0,1,141.88,25.46ZM5.13.75A4.38,4.38,0,0,0,.75,5.13V20.34a4.38,4.38,0,0,0,4.38,4.37H141.88a4.38,4.38,0,0,0,4.38-4.37V5.13A4.39,4.39,0,0,0,141.88.75Z"/><path class="cls-1" d="M14.65,19.86a1.19,1.19,0,0,1-.73-.25c-1.65-1.28-5.6-4.45-6.58-6.35A5.45,5.45,0,0,1,9,6.3a4.2,4.2,0,0,1,2.31-.7,4.34,4.34,0,0,1,3.32,1.58A4.38,4.38,0,0,1,18,5.6a4.19,4.19,0,0,1,2.3.7h0a5.45,5.45,0,0,1,1.68,7c-1,1.9-4.92,5.07-6.57,6.35A1.22,1.22,0,0,1,14.65,19.86ZM11.33,6.28a3.58,3.58,0,0,0-1.94.58A4.76,4.76,0,0,0,7.94,13c.94,1.83,5.13,5.15,6.39,6.12a.53.53,0,0,0,.65,0c1.26-1,5.44-4.29,6.38-6.12a4.77,4.77,0,0,0-1.44-6.09h0A3.6,3.6,0,0,0,18,6.28a3.72,3.72,0,0,0-3.05,1.64l-.28.38-.27-.38A3.76,3.76,0,0,0,11.33,6.28Z"/><path class="cls-1" d="M14.65,20.09a1.42,1.42,0,0,1-.88-.3c-1.66-1.29-5.63-4.48-6.63-6.42A5.69,5.69,0,0,1,8.9,6.1a4.52,4.52,0,0,1,2.43-.73,4.57,4.57,0,0,1,3.32,1.46,4.48,4.48,0,0,1,5.76-.73,5.71,5.71,0,0,1,1.76,7.27c-1,1.94-5,5.13-6.64,6.42A1.46,1.46,0,0,1,14.65,20.09ZM11.33,5.83a4,4,0,0,0-2.18.66,5.23,5.23,0,0,0-1.6,6.67c1,1.86,4.87,5,6.51,6.26a1,1,0,0,0,1.19,0c1.63-1.26,5.55-4.41,6.51-6.26a5.24,5.24,0,0,0-1.6-6.67A4,4,0,0,0,18,5.83a4.13,4.13,0,0,0-3.15,1.5l-.18.2-.17-.2A4.15,4.15,0,0,0,11.33,5.83Zm3.32,13.59a.78.78,0,0,1-.46-.16c-1.27-1-5.49-4.33-6.45-6.2A5,5,0,0,1,9.26,6.67,3.81,3.81,0,0,1,11.33,6h0a4,4,0,0,1,3.24,1.74l.08.12.09-.12A4,4,0,0,1,18,6,3.78,3.78,0,0,1,20,6.67a5,5,0,0,1,1.53,6.39c-1,1.87-5.18,5.22-6.45,6.2A.81.81,0,0,1,14.65,19.42ZM11.33,6.51a3.35,3.35,0,0,0-1.82.55,4.52,4.52,0,0,0-1.36,5.79c.92,1.79,5.07,5.08,6.32,6a.32.32,0,0,0,.37,0c1.25-1,5.4-4.26,6.32-6a4.54,4.54,0,0,0-1.37-5.79A3.31,3.31,0,0,0,18,6.51a3.54,3.54,0,0,0-2.87,1.54l-.46.65-.46-.65a3.52,3.52,0,0,0-2.86-1.54Z"/><path class="cls-1" d="M30.75,16.46a.41.41,0,0,1-.31-.12.44.44,0,0,1-.11-.32v-1.2h-3a.47.47,0,0,1-.32-.1.35.35,0,0,1-.12-.28A.69.69,0,0,1,27,14.2a2,2,0,0,1,.19-.3l3.16-4.6a.72.72,0,0,1,.2-.22A.5.5,0,0,1,30.78,9a.43.43,0,0,1,.29.1.42.42,0,0,1,.12.33v4.65h.75a.4.4,0,0,1,.3.1.34.34,0,0,1,.11.27.37.37,0,0,1-.11.27.45.45,0,0,1-.3.09h-.75V16a.41.41,0,0,1-.44.44Zm-.42-2.37v-4h.25l-2.9,4.25v-.23Z"/><path class="cls-1" d="M34,16.38a.41.41,0,0,1-.33-.11.36.36,0,0,1-.11-.29.43.43,0,0,1,.06-.22.8.8,0,0,1,.16-.23l2.32-2.48A4.7,4.7,0,0,0,36.83,12a2.3,2.3,0,0,0,.23-1,1.19,1.19,0,0,0-.38-.95,1.62,1.62,0,0,0-1.1-.33,2.54,2.54,0,0,0-.88.15,2.87,2.87,0,0,0-.8.44.4.4,0,0,1-.24.1.34.34,0,0,1-.19-.09.32.32,0,0,1-.12-.18.36.36,0,0,1,0-.23.4.4,0,0,1,.16-.21,3.11,3.11,0,0,1,1-.53A3.33,3.33,0,0,1,35.65,9a3,3,0,0,1,1.24.22,1.69,1.69,0,0,1,.77.67A2.12,2.12,0,0,1,37.92,11a2.77,2.77,0,0,1-.14.86,3.53,3.53,0,0,1-.42.85,6.89,6.89,0,0,1-.74.91L34.41,15.9v-.24H37.9a.4.4,0,0,1,.29.09.3.3,0,0,1,.1.26.36.36,0,0,1-.1.28.4.4,0,0,1-.29.09Z"/><path class="cls-1" d="M42,16.48a2.15,2.15,0,0,1-1.91-1,5,5,0,0,1-.65-2.78,6.43,6.43,0,0,1,.29-2.06,2.47,2.47,0,0,1,.87-1.26A2.3,2.3,0,0,1,42,9a2.16,2.16,0,0,1,1.91.94,5,5,0,0,1,.65,2.79,6.47,6.47,0,0,1-.29,2.06,2.66,2.66,0,0,1-.86,1.27A2.32,2.32,0,0,1,42,16.48Zm0-.74A1.39,1.39,0,0,0,43.25,15a4.76,4.76,0,0,0,.42-2.28,4.7,4.7,0,0,0-.42-2.28A1.39,1.39,0,0,0,42,9.72a1.38,1.38,0,0,0-1.28.73,4.56,4.56,0,0,0-.43,2.27A4.63,4.63,0,0,0,40.68,15,1.39,1.39,0,0,0,42,15.74Z"/><path class="cls-1" d="M69.12,16.22a.7.7,0,0,1,0-.45,6.82,6.82,0,0,0,.5-4.77A6.64,6.64,0,0,0,65,6.16a7.51,7.51,0,0,0-1.87-.25A6.78,6.78,0,0,0,57.7,8.55a6.89,6.89,0,0,0-1.19,6,7.47,7.47,0,0,0,4.89,4.8,6.85,6.85,0,0,0,4.91-.62.65.65,0,0,1,.47-.06l2.93.77a.21.21,0,0,0,.16-.09.24.24,0,0,0,0-.2ZM67,17.94a1.47,1.47,0,0,0-1,.12,6,6,0,0,1-2.86.74,6.07,6.07,0,0,1-1.51-.19,6.71,6.71,0,0,1-4.34-4.25,6.18,6.18,0,0,1,1-5.34,6,6,0,0,1,4.79-2.35,6.84,6.84,0,0,1,1.67.22,5.9,5.9,0,0,1,4.19,4.29,6.15,6.15,0,0,1-.44,4.25,1.36,1.36,0,0,0-.1,1l.54,2Z"/><path class="cls-1" d="M63.07,19.78a7.17,7.17,0,0,1-1.72-.21,7.71,7.71,0,0,1-5.07-5,7.16,7.16,0,0,1,1.24-6.2,7,7,0,0,1,5.56-2.73A7.46,7.46,0,0,1,65,5.94a6.85,6.85,0,0,1,4.89,5,7,7,0,0,1-.51,4.93.42.42,0,0,0,0,.29l.78,2.93a.46.46,0,0,1-.42.58h0l-3-.79a.39.39,0,0,0-.3,0A7,7,0,0,1,63.07,19.78Zm0-13.64a6.52,6.52,0,0,0-5.2,2.56,6.66,6.66,0,0,0-1.15,5.79,7.2,7.2,0,0,0,4.73,4.63,6.6,6.6,0,0,0,4.74-.59.85.85,0,0,1,.64-.08l2.86.75-.8-2.92a.86.86,0,0,1,.07-.61,6.73,6.73,0,0,0,.48-4.62,6.41,6.41,0,0,0-4.56-4.66A7.11,7.11,0,0,0,63.08,6.14Zm0,12.89A6.26,6.26,0,0,1,57,14.42a6.38,6.38,0,0,1,1.09-5.54,6.24,6.24,0,0,1,5-2.44,6.8,6.8,0,0,1,1.73.23,6.11,6.11,0,0,1,4.35,4.45,6.37,6.37,0,0,1-.45,4.41,1.2,1.2,0,0,0-.09.83l.65,2.43-2.35-.63a1.23,1.23,0,0,0-.86.11A6.22,6.22,0,0,1,63.09,19Zm0-12.13a5.78,5.78,0,0,0-4.6,2.27,5.89,5.89,0,0,0-1,5.13,6.44,6.44,0,0,0,4.18,4.09,5.83,5.83,0,0,0,4.2-.53,1.67,1.67,0,0,1,1.2-.14l1.58.42-.45-1.66a1.64,1.64,0,0,1,.12-1.15,5.88,5.88,0,0,0,.42-4.09,5.64,5.64,0,0,0-4-4.12A6,6,0,0,0,63.08,6.9Z"/><path class="cls-1" d="M76.86,16.48a3.69,3.69,0,0,1-1.4-.24,1.86,1.86,0,0,1-.89-.7,2.07,2.07,0,0,1-.1-2,1.73,1.73,0,0,1,.58-.65,2.06,2.06,0,0,1,.86-.31v.16a1.81,1.81,0,0,1-1.07-.64,1.95,1.95,0,0,1-.1-2.22,1.89,1.89,0,0,1,.84-.66,3.7,3.7,0,0,1,2.57,0,2,2,0,0,1,.85.66,1.8,1.8,0,0,1,.3,1,1.9,1.9,0,0,1-.18.83,1.56,1.56,0,0,1-.52.62,2,2,0,0,1-.77.35v-.15a1.86,1.86,0,0,1,1.18.61,1.8,1.8,0,0,1,.45,1.26,1.94,1.94,0,0,1-.3,1.09,1.91,1.91,0,0,1-.89.7A3.71,3.71,0,0,1,76.86,16.48Zm0-.71a2.21,2.21,0,0,0,1.34-.34,1.22,1.22,0,0,0,.45-1,1.21,1.21,0,0,0-.45-1A2.28,2.28,0,0,0,76.86,13a2.22,2.22,0,0,0-1.32.33,1.19,1.19,0,0,0-.46,1,1.2,1.2,0,0,0,.46,1A2.14,2.14,0,0,0,76.86,15.77Zm0-3.44a2.08,2.08,0,0,0,.87-.16,1.19,1.19,0,0,0,.55-.46,1.25,1.25,0,0,0,.2-.7,1.16,1.16,0,0,0-.43-1,2.18,2.18,0,0,0-2.37,0,1.18,1.18,0,0,0-.42,1,1.19,1.19,0,0,0,.42,1A1.79,1.79,0,0,0,76.86,12.33Z"/><path class="cls-1" d="M83.23,16.48a4,4,0,0,1-1.17-.18A3.15,3.15,0,0,1,81,15.75a.36.36,0,0,1-.17-.2.33.33,0,0,1,0-.22.49.49,0,0,1,.11-.2.32.32,0,0,1,.21-.08.37.37,0,0,1,.25.08,3,3,0,0,0,1.83.59,1.87,1.87,0,0,0,.88-.19,1.39,1.39,0,0,0,.56-.54,1.62,1.62,0,0,0,.19-.81A1.69,1.69,0,0,0,84.44,13a1.46,1.46,0,0,0-1.14-.46,2,2,0,0,0-.82.17,2,2,0,0,0-.69.52.39.39,0,0,1-.17.14.4.4,0,0,1-.22.06.33.33,0,0,1-.27-.1.33.33,0,0,1-.1-.26V9.47a.37.37,0,0,1,.1-.29.39.39,0,0,1,.29-.1h3.52a.45.45,0,0,1,.3.09.41.41,0,0,1,.1.27.37.37,0,0,1-.1.27.45.45,0,0,1-.3.1H81.87v2.91h-.23a1.74,1.74,0,0,1,.75-.67,2.3,2.3,0,0,1,1.06-.24,2.32,2.32,0,0,1,1.2.3,2,2,0,0,1,.78.81,2.61,2.61,0,0,1,.27,1.22,2.41,2.41,0,0,1-.3,1.21,2.12,2.12,0,0,1-.85.83A2.71,2.71,0,0,1,83.23,16.48Z"/><path class="cls-1" d="M87.52,16.38a.41.41,0,0,1-.33-.11.36.36,0,0,1-.11-.29.54.54,0,0,1,0-.22,1.6,1.6,0,0,1,.16-.23l2.33-2.48A4.7,4.7,0,0,0,90.38,12a2.3,2.3,0,0,0,.23-1,1.19,1.19,0,0,0-.38-.95,1.62,1.62,0,0,0-1.1-.33,2.54,2.54,0,0,0-.88.15,2.87,2.87,0,0,0-.8.44.4.4,0,0,1-.24.1.36.36,0,0,1-.31-.27.36.36,0,0,1,0-.23.35.35,0,0,1,.16-.21,3.11,3.11,0,0,1,1-.53A3.33,3.33,0,0,1,89.2,9a3,3,0,0,1,1.24.22,1.69,1.69,0,0,1,.77.67A2.12,2.12,0,0,1,91.47,11a2.77,2.77,0,0,1-.14.86,3.58,3.58,0,0,1-.43.85,5.59,5.59,0,0,1-.74.91L88,15.9v-.24h3.49a.4.4,0,0,1,.29.09.3.3,0,0,1,.1.26.36.36,0,0,1-.1.28.4.4,0,0,1-.29.09Z"/><path class="cls-1" d="M118.28,6H104a.35.35,0,0,0-.33.24.34.34,0,0,0,.1.38l5.65,4.81v0l1.39,7.62a.35.35,0,0,0,.29.28.34.34,0,0,0,.36-.17l7.17-12.67a.36.36,0,0,0-.31-.53Zm-7,12L110,11.22a.38.38,0,0,0-.12-.21l-5-4.26h12.77Z"/><path class="cls-1" d="M111.12,19.65H111a.6.6,0,0,1-.47-.47l-1.38-7.58-5.59-4.75a.59.59,0,0,1,.38-1h14.33a.58.58,0,0,1,.51.87l-7.17,12.67A.57.57,0,0,1,111.12,19.65ZM104,6.28a.12.12,0,0,0-.08.21l5.72,4.86,0,.12L111,19.09a.13.13,0,0,0,.1.1.11.11,0,0,0,.12-.06l7.17-12.67a.13.13,0,0,0,0-.12.13.13,0,0,0-.11-.06Zm7.23,12.44-1.37-7.46a.1.1,0,0,0,0-.07l-5.49-4.67h13.8ZM105.54,7l4.53,3.86a.57.57,0,0,1,.2.34l1.13,6.2L117.28,7Z"/><path class="cls-1" d="M118.28,6.05a.33.33,0,0,0-.17,0L109.52,11a.31.31,0,0,0-.16.21.3.3,0,0,0,0,.26.36.36,0,0,0,.48.14l8.59-4.89a.31.31,0,0,0,.16-.21.32.32,0,0,0,0-.27A.36.36,0,0,0,118.28,6.05Z"/><path class="cls-1" d="M109.7,11.86a.6.6,0,0,1-.51-.29.57.57,0,0,1-.06-.44.55.55,0,0,1,.28-.35L118,5.89a.6.6,0,0,1,.8.22.52.52,0,0,1,0,.44.53.53,0,0,1-.27.35L110,11.79A.55.55,0,0,1,109.7,11.86Zm8.58-5.58h-.06l-8.58,4.89a.11.11,0,0,0-.06.07.1.1,0,0,0,0,.09.14.14,0,0,0,.17,0l8.58-4.88a.13.13,0,0,0,.06-.07.14.14,0,0,0,0-.09A.11.11,0,0,0,118.28,6.28Z"/><path class="cls-1" d="M125.37,16.48a4.17,4.17,0,0,1-1.21-.18,3,3,0,0,1-1-.52.44.44,0,0,1-.18-.21.37.37,0,0,1,0-.23.32.32,0,0,1,.1-.18.29.29,0,0,1,.21-.09.41.41,0,0,1,.26.08,3.45,3.45,0,0,0,.91.44,3.33,3.33,0,0,0,.94.13,2.2,2.2,0,0,0,.9-.16,1.07,1.07,0,0,0,.54-.46,1.35,1.35,0,0,0,.19-.75,1.15,1.15,0,0,0-.42-1,2,2,0,0,0-1.24-.33h-.73a.45.45,0,0,1-.3-.1.38.38,0,0,1-.11-.28.35.35,0,0,1,.11-.26.4.4,0,0,1,.3-.1h.66a1.8,1.8,0,0,0,.81-.16,1.28,1.28,0,0,0,.53-.47,1.49,1.49,0,0,0,.18-.75,1.07,1.07,0,0,0-.37-.88,1.64,1.64,0,0,0-1.08-.31,2.84,2.84,0,0,0-.88.14,2.79,2.79,0,0,0-.82.45.3.3,0,0,1-.24.09.35.35,0,0,1-.2-.07.42.42,0,0,1-.11-.18.39.39,0,0,1,0-.24.47.47,0,0,1,.17-.22,3.1,3.1,0,0,1,1-.54A3.69,3.69,0,0,1,125.37,9a2.92,2.92,0,0,1,1.2.22,1.69,1.69,0,0,1,.77.64,1.84,1.84,0,0,1,.27,1,1.85,1.85,0,0,1-.17.82,1.79,1.79,0,0,1-.47.62,1.91,1.91,0,0,1-.74.37v-.11a1.86,1.86,0,0,1,1.17.62,1.82,1.82,0,0,1,.42,1.23,2,2,0,0,1-.3,1.1,1.91,1.91,0,0,1-.84.71A3.09,3.09,0,0,1,125.37,16.48Z"/><path class="cls-1" d="M131.16,16.48a2.93,2.93,0,0,1-1-.19,2.53,2.53,0,0,1-.89-.54.31.31,0,0,1-.14-.2.41.41,0,0,1,0-.22.34.34,0,0,1,.11-.18.26.26,0,0,1,.19-.09.45.45,0,0,1,.24.09,2.29,2.29,0,0,0,.72.44,2.21,2.21,0,0,0,.76.13,1.92,1.92,0,0,0,1.14-.33,2,2,0,0,0,.72-1,5,5,0,0,0,.24-1.66v-1h.09a2.25,2.25,0,0,1-.34,1,1.88,1.88,0,0,1-.74.66,2.17,2.17,0,0,1-1,.23,2.25,2.25,0,0,1-1.14-.29,2.06,2.06,0,0,1-.78-.82,2.58,2.58,0,0,1-.28-1.19,2.49,2.49,0,0,1,.3-1.23,2.28,2.28,0,0,1,.82-.84,2.38,2.38,0,0,1,1.2-.3,2.5,2.5,0,0,1,1.47.42,2.6,2.6,0,0,1,.92,1.21,5.54,5.54,0,0,1,.31,1.93,6.45,6.45,0,0,1-.2,1.68,3.5,3.5,0,0,1-.58,1.23,2.62,2.62,0,0,1-.93.76A2.93,2.93,0,0,1,131.16,16.48Zm.31-3.54a1.52,1.52,0,0,0,.81-.2,1.4,1.4,0,0,0,.55-.58,1.86,1.86,0,0,0,0-1.68,1.44,1.44,0,0,0-.55-.57,1.67,1.67,0,0,0-1.62,0,1.58,1.58,0,0,0-.55.57,1.86,1.86,0,0,0,0,1.68,1.45,1.45,0,0,0,1.36.78Z"/><path class="cls-1" d="M138,16.48a4,4,0,0,1-1.17-.18,3.15,3.15,0,0,1-1.06-.55.36.36,0,0,1-.17-.2.33.33,0,0,1,0-.22.49.49,0,0,1,.11-.2.32.32,0,0,1,.21-.08.37.37,0,0,1,.25.08,3,3,0,0,0,1.83.59,1.87,1.87,0,0,0,.88-.19,1.39,1.39,0,0,0,.56-.54,1.62,1.62,0,0,0,.19-.81,1.65,1.65,0,0,0-.42-1.17,1.42,1.42,0,0,0-1.13-.46,2,2,0,0,0-.82.17,2,2,0,0,0-.69.52.39.39,0,0,1-.17.14.4.4,0,0,1-.22.06.33.33,0,0,1-.27-.1.33.33,0,0,1-.1-.26V9.47a.37.37,0,0,1,.1-.29.39.39,0,0,1,.29-.1h3.52a.45.45,0,0,1,.3.09.41.41,0,0,1,.1.27.37.37,0,0,1-.1.27.45.45,0,0,1-.3.1h-3.07v2.91h-.23a1.77,1.77,0,0,1,.74-.67,2.37,2.37,0,0,1,1.07-.24,2.32,2.32,0,0,1,1.2.3,1.94,1.94,0,0,1,.77.81,2.5,2.5,0,0,1,.28,1.22,2.41,2.41,0,0,1-.3,1.21,2.12,2.12,0,0,1-.85.83A2.74,2.74,0,0,1,138,16.48Z"/></svg>