<svg id="Filled" xmlns="http://www.w3.org/2000/svg" viewBox="0 0 486.74 512"><defs><style>.cls-1{fill:#303030;}</style></defs><path class="cls-1" d="M384,256A127.85,127.85,0,0,1,273.26,64H90.5l-.9-7.51A64,64,0,0,0,26.07,0H21.33a21.34,21.34,0,0,0,0,42.67h4.74A21.32,21.32,0,0,1,47.25,61.5L76.61,311.1a106.67,106.67,0,0,0,105.94,94.23H405.33a21.33,21.33,0,1,0,0-42.66H182.55A64,64,0,0,1,122.37,320H376.68a106.66,106.66,0,0,0,105-87.74l5.08-28.14A127.65,127.65,0,0,1,384,256Z"/><circle class="cls-1" cx="149.33" cy="469.33" r="42.67"/><circle class="cls-1" cx="362.67" cy="469.33" r="42.67"/><path class="cls-1" d="M320,149.33h42.67V192a21.33,21.33,0,1,0,42.66,0V149.33H448a21.33,21.33,0,0,0,0-42.66H405.33V64a21.33,21.33,0,1,0-42.66,0v42.67H320a21.33,21.33,0,1,0,0,42.66Z"/></svg>