<svg id="Capa_1" data-name="Capa 1" xmlns="http://www.w3.org/2000/svg" viewBox="0 0 132.25 500"><defs><style>.cls-1{fill:#303030;}</style></defs><path class="cls-1" d="M201.52,25.3c-13.8,16.12-16.19,35.59-16.45,55.75-.47,36.26,0,72.56,0,108.82,0,83.77-2.69,168,0,251.73,2.58,80.82,122,75.62,127.66-2.4,5.95-81.51,0-165.46,0-247.23,0-12.48-19.4-12.5-19.4,0V391.75c0,18.25,3.47,40.55-1.6,58.54-13.07,46.38-85.09,39.21-87.27-8.69-2.93-64.78,0-130.37,0-195.2,0-57.46-4.07-116.57,0-173.92,2.89-40.72,46-60.72,80.25-48.52h31.42C285.07-4.77,233.07-11.54,201.52,25.3Z" transform="translate(-183.87)"/></svg>