<svg id="Layer_1" data-name="Layer 1" xmlns="http://www.w3.org/2000/svg" viewBox="0 0 22 24"><defs><style>.cls-1{fill:#303030;}</style></defs><path class="cls-1" d="M15.85,10.85,12.71,14l3.14,3.15a.48.48,0,0,1,0,.7.48.48,0,0,1-.7,0L12,14.71,8.85,17.85a.48.48,0,0,1-.7,0,.48.48,0,0,1,0-.7L11.29,14,8.15,10.85a.49.49,0,0,1,.7-.7L12,13.29l3.14-3.14a.5.5,0,0,1,.71,0,.48.48,0,0,1,0,.7ZM23,4.5a.5.5,0,0,1-.5.5H21v0L19.63,19.91A4.48,4.48,0,0,1,15.15,24H8.87a4.48,4.48,0,0,1-4.48-4.08L3,5.05V5H1.5a.5.5,0,0,1,0-1h5A4.5,4.5,0,0,1,11,0h2a4.5,4.5,0,0,1,4.47,4h5a.5.5,0,0,1,.5.5ZM7.54,4h8.92A3.5,3.5,0,0,0,13,1H11A3.5,3.5,0,0,0,7.54,4ZM20,5H4L5.39,19.83A3.48,3.48,0,0,0,8.87,23h6.28a3.48,3.48,0,0,0,3.48-3.18L20,5Z" transform="translate(-1)"/></svg>