<svg id="Layer_1" data-name="Layer 1" xmlns="http://www.w3.org/2000/svg" viewBox="0 0 512 512"><path d="M357,97.3h-.09l-202,.15A101.08,101.08,0,0,0,54,198.46V313.83A100.84,100.84,0,0,0,154.94,414.72H357.06A101.1,101.1,0,0,0,458,313.72V198.28a101,101,0,0,0-101-101Zm-.09,28.86H357a71.63,71.63,0,0,1,48,18.33L295,254.59c-20.69,20.69-56.74,20.69-77.43,0L107.32,144.37a71.78,71.78,0,0,1,47.59-18l202-.15Zm72.23,187.59a72.23,72.23,0,0,1-72.09,72.14H154.94a72,72,0,0,1-72.09-72.06V198.46a71.67,71.67,0,0,1,6.92-30.83L197.13,275a83.57,83.57,0,0,0,118.23,0l107.1-107.1a71.8,71.8,0,0,1,6.69,30.45V313.75Z"/></svg>