<svg id="Layer_1" data-name="Layer 1" xmlns="http://www.w3.org/2000/svg" viewBox="0 0 512 512"><path d="M439.3,81.66a40.85,40.85,0,0,0-35.62-7.2c-4.39,1.16-9.55,2.74-15.14,4.45-15.68,4.81-35.2,10.8-49.4,10.8-23.78,0-52.8-8.3-80.87-16.3-29.15-8.33-59.32-17-85.42-17-32.75,0-68.25,13.22-92.28,24.31a41.67,41.67,0,0,0-24.11,37.75V447.24a8.32,8.32,0,0,0,16.63,0V309.9c13-8.55,59.93-37.27,99.81-37.27,23.77,0,52.78,8.3,80.83,16.3,29.15,8.33,59.3,17,85.41,17,31.38,0,69-7.77,89.38-18.46,16.91-8.85,27-23.8,27-39.94V114.72a41.39,41.39,0,0,0-16.26-33.06ZM239.38,151.85c4.79,1.33,9.61,2.71,14.42,4.09,29.13,8.32,59.26,16.93,85.35,16.93,38,0,79.68-16.1,99.78-25v48.23c-14.37,6.72-60.3,26.64-99.78,26.64-23.78,0-52.79-8.3-80.86-16.3-6.27-1.79-12.59-3.59-18.91-5.32V151.85Zm99.77-45.51c16.68,0,37.54-6.41,54.28-11.53,5.36-1.64,10.3-3.14,14.5-4.27a24.41,24.41,0,0,1,21.22,4.31,24.88,24.88,0,0,1,9.78,19.87v14.86c-14.37,6.72-60.3,26.64-99.78,26.64-23.76,0-52.74-8.28-80.78-16.28-6.34-1.81-12.69-3.62-19-5.33V85.32q7.19,2,14.35,4.05c29.15,8.34,59.32,17,85.42,17ZM87.54,95.86c18.42-8.51,54-22.78,85.32-22.78,15.07,0,32.23,3.32,49.92,7.8l0,.51V196.78c-17.36-4.24-34.34-7.3-49.89-7.3-43.4,0-85.89,23.33-99.77,31.73V118.49A25,25,0,0,1,87.54,95.86ZM420.84,272.7c-18,9.44-53.13,16.56-81.69,16.56-23.78,0-52.78-8.3-80.83-16.3-29.15-8.33-59.3-17-85.41-17-37.85,0-79.22,21.75-99.81,34.22V239.37c1.57,0,53.07-33.26,99.78-33.26,23.78,0,52.8,8.3,80.87,16.3,29.15,8.33,59.31,17,85.42,17,38,0,79.67-16.1,99.78-25v33.08c0,9.86-6.77,19.29-18.1,25.23Z"/><path d="M64.77,458A10.79,10.79,0,0,1,54,447.24V118.51a44.13,44.13,0,0,1,25.55-40C103.79,67.32,139.66,54,172.84,54c26.43,0,56.71,8.66,86,17l.46.13c27.78,7.91,56.5,16.1,79.84,16.1,13.82,0,33.13-5.92,48.64-10.67,5.59-1.72,10.82-3.32,15.26-4.5A43.3,43.3,0,0,1,440.8,79.7l5.76,4.43h-.82A43.79,43.79,0,0,1,458,114.72V247.49c0,17.09-10.59,32.84-28.34,42.13-20.72,10.86-58.8,18.74-90.53,18.74-26.41,0-56.67-8.65-85.93-17l-.51-.15c-27.76-7.92-56.47-16.1-79.8-16.1-38.09,0-82.82,26.74-97.34,36.13v136A10.8,10.8,0,0,1,64.77,458ZM172.84,58.92C140.56,58.92,105.41,72,81.6,83a39.19,39.19,0,0,0-22.67,35.51V447.24a5.85,5.85,0,0,0,11.69,0V308.56l1.11-.73c13.5-8.84,60.68-37.67,101.17-37.67,24,0,53.06,8.28,81.15,16.29l.52.15c28.93,8.27,58.85,16.82,84.57,16.82,31,0,68.14-7.65,88.23-18.18,16.1-8.42,25.7-22.53,25.7-37.75V114.72a38.9,38.9,0,0,0-15.3-31.1l-.71-.55a38.35,38.35,0,0,0-32.75-6.22c-4.35,1.15-9.54,2.74-15,4.43-15.87,4.86-35.57,10.9-50.13,10.9-24,0-53.09-8.28-81.19-16.29l-.46-.14C228.52,67.48,198.58,58.92,172.84,58.92ZM70.63,294.61V236.9h2c.61-.3,2-1.05,3.37-1.83,14-7.77,56.74-31.43,96.87-31.43,24,0,53.08,8.28,81.18,16.29l.48.14c29,8.27,58.9,16.83,84.63,16.83,37.16,0,77.84-15.52,98.78-24.77l3.47-1.53v36.87c0,10.79-7.26,21-19.42,27.41l-.56.29c-18.48,9.46-53.68,16.56-82.29,16.56-24,0-53.07-8.28-81.15-16.29l-.52-.15c-28.94-8.27-58.85-16.82-84.57-16.82-37.09,0-77.65,21.22-98.53,33.87Zm102.28-41.08c26.41,0,56.66,8.65,85.93,17l.51.15c27.76,7.91,56.47,16.1,79.8,16.1,28.21,0,62.83-7,80.54-16.28l.55-.28c10.18-5.52,16.24-14,16.24-22.76V218.16c-22.11,9.49-61.21,23.68-97.31,23.68-26.42,0-56.7-8.65-86-17l-.47-.14c-27.78-7.91-56.5-16.1-79.83-16.1-38.85,0-80.72,23.19-94.48,30.81-1.25.7-2.15,1.2-2.83,1.56v44.92C97.76,272.85,136.76,253.53,172.91,253.53ZM70.62,225.59V118.49A27.42,27.42,0,0,1,86.5,93.62h0c18.6-8.6,54.55-23,86.36-23,13.22,0,29.28,2.5,50.53,7.87l2,.51-.16,2.48V199.93l-3.06-.75C202,194.25,186.3,192,172.86,192c-43.26,0-86.33,24-98.5,31.37Zm102.24-150C142,75.55,106.8,89.68,88.57,98.1h0a22.47,22.47,0,0,0-13,20.39v98.39c18.09-10.48,57-29.87,97.3-29.87,13.16,0,28.29,2.12,47.42,6.64V82.8C200.38,77.85,185.27,75.55,172.86,75.55ZM339.15,225.23c-24,0-53.07-8.28-81.18-16.29l-.36-.1c-6-1.71-12.39-3.54-18.88-5.32l-1.82-.5V148.64l3.13.83c4.8,1.33,9.63,2.72,14.44,4.1l.17.05c28.91,8.25,58.81,16.78,84.5,16.78,37.16,0,77.84-15.52,98.78-24.77l3.47-1.53v53.59l-1.42.66C426.49,204.66,379.38,225.23,339.15,225.23Zm-97.3-26c5.89,1.62,11.69,3.27,17.12,4.83l.36.1c27.77,7.91,56.49,16.1,79.82,16.1,37.91,0,82.43-18.9,97.31-25.75V151.66c-22.11,9.49-61.21,23.68-97.31,23.68-26.38,0-56.62-8.63-85.86-17l-.17-.05c-3.76-1.08-7.52-2.16-11.27-3.21Zm97.3-40.57c-24.06,0-53.16-8.3-81.31-16.33l-.15,0c-6.75-1.93-12.84-3.67-19-5.33l-1.82-.5V82.07l3.13.87q7.19,2,14.37,4.06l.11,0c29,8.28,58.91,16.84,84.63,16.84,16.24,0,36.8-6.29,53.32-11.35l.24-.07c6-1.85,10.57-3.22,14.58-4.3a26.93,26.93,0,0,1,23.36,4.73,27.33,27.33,0,0,1,10.75,21.84v16.44l-1.42.66C426.49,138.12,379.38,158.69,339.15,158.69Zm-97.3-26c5.54,1.52,11.1,3.1,17.2,4.85l.15,0c27.81,7.94,56.58,16.14,79.95,16.14,37.91,0,82.43-18.89,97.31-25.74V114.72a22.42,22.42,0,0,0-8.81-17.92,22,22,0,0,0-19.09-3.87c-3.92,1-8.42,2.4-14.4,4.24l-.24.08c-16.84,5.15-37.8,11.56-54.77,11.56-26.42,0-56.7-8.66-86-17l-.11,0q-5.6-1.6-11.2-3.18Z"/></svg>