<svg id="Capa_1" data-name="Capa 1" xmlns="http://www.w3.org/2000/svg" viewBox="0 0 500 500"><defs><style>.cls-1{fill:#f9f5f4;}</style></defs><path class="cls-1" d="M480.34,151.29H19.66A19.68,19.68,0,0,1,0,131.64V28.87A19.67,19.67,0,0,1,19.66,9.22H480.34A19.67,19.67,0,0,1,500,28.87V131.64A19.68,19.68,0,0,1,480.34,151.29ZM19.66,19.42a9.46,9.46,0,0,0-9.45,9.45V131.64a9.46,9.46,0,0,0,9.45,9.44H480.34a9.46,9.46,0,0,0,9.45-9.44V28.87a9.46,9.46,0,0,0-9.45-9.45Z"/><rect class="cls-1" x="44.81" y="47.59" width="10.21" height="65.32"/><rect class="cls-1" x="77.9" y="47.59" width="10.21" height="65.32"/><rect class="cls-1" x="111" y="47.59" width="10.21" height="65.32"/><rect class="cls-1" x="144.1" y="47.59" width="10.21" height="65.32"/><rect class="cls-1" x="177.19" y="47.59" width="10.21" height="65.32"/><rect class="cls-1" x="210.29" y="47.59" width="10.21" height="65.32"/><path class="cls-1" d="M355.2,111.69a31.44,31.44,0,1,1,31.44-31.43A31.47,31.47,0,0,1,355.2,111.69Zm0-52.67a21.23,21.23,0,1,0,21.23,21.24A21.26,21.26,0,0,0,355.2,59Z"/><path class="cls-1" d="M433.79,111.69a31.44,31.44,0,1,1,31.43-31.43A31.47,31.47,0,0,1,433.79,111.69Zm0-52.67A21.23,21.23,0,1,0,455,80.26,21.27,21.27,0,0,0,433.79,59Z"/><path class="cls-1" d="M480.34,339.2H19.66A19.68,19.68,0,0,1,0,319.54V216.78a19.67,19.67,0,0,1,19.66-19.65H480.34A19.67,19.67,0,0,1,500,216.78V319.54A19.68,19.68,0,0,1,480.34,339.2ZM19.66,207.33a9.46,9.46,0,0,0-9.45,9.45V319.54A9.46,9.46,0,0,0,19.66,329H480.34a9.46,9.46,0,0,0,9.45-9.45V216.78a9.46,9.46,0,0,0-9.45-9.45Z"/><rect class="cls-1" x="44.81" y="235.5" width="10.21" height="65.32"/><rect class="cls-1" x="77.9" y="235.5" width="10.21" height="65.32"/><rect class="cls-1" x="111" y="235.5" width="10.21" height="65.32"/><rect class="cls-1" x="144.1" y="235.5" width="10.21" height="65.32"/><rect class="cls-1" x="177.19" y="235.5" width="10.21" height="65.32"/><rect class="cls-1" x="210.29" y="235.5" width="10.21" height="65.32"/><path class="cls-1" d="M355.2,299.6a31.44,31.44,0,1,1,31.44-31.44A31.47,31.47,0,0,1,355.2,299.6Zm0-52.67a21.23,21.23,0,1,0,21.23,21.23A21.26,21.26,0,0,0,355.2,246.93Z"/><path class="cls-1" d="M433.79,299.6a31.44,31.44,0,1,1,31.43-31.44A31.47,31.47,0,0,1,433.79,299.6Zm0-52.67A21.23,21.23,0,1,0,455,268.16,21.26,21.26,0,0,0,433.79,246.93Z"/><rect class="cls-1" x="54.15" y="146.19" width="10.21" height="56.04"/><rect class="cls-1" x="435.65" y="146.19" width="10.21" height="56.04"/><rect class="cls-1" x="244.9" y="334.1" width="10.21" height="83.41"/><path class="cls-1" d="M250,490.78a40,40,0,1,1,40-40A40.06,40.06,0,0,1,250,490.78Zm0-69.84a29.82,29.82,0,1,0,29.82,29.82A29.86,29.86,0,0,0,250,420.94Z"/><rect class="cls-1" x="50.74" y="445.66" width="169.44" height="10.21"/><path class="cls-1" d="M29,479.72a29,29,0,1,1,29-29A29,29,0,0,1,29,479.72ZM29,432a18.76,18.76,0,1,0,18.76,18.76A18.78,18.78,0,0,0,29,432Z"/><rect class="cls-1" x="279.82" y="445.66" width="169.44" height="10.21"/><path class="cls-1" d="M471,479.72a29,29,0,1,1,29-29A29,29,0,0,1,471,479.72ZM471,432a18.76,18.76,0,1,0,18.75,18.76A18.78,18.78,0,0,0,471,432Z"/></svg>