<svg id="Capa_1" data-name="Capa 1" xmlns="http://www.w3.org/2000/svg" viewBox="0 0 500 500"><defs><style>.cls-1{fill:#f9f5f4;}</style></defs><rect class="cls-1" x="159.04" y="341.36" width="41.29" height="7.85" transform="matrix(0.36, -0.93, 0.93, 0.36, -207.16, 388.37)"/><rect class="cls-1" x="274.07" y="324.64" width="7.85" height="41.29" transform="matrix(0.93, -0.36, 0.36, 0.93, -105.76, 123.4)"/><circle class="cls-1" cx="67.87" cy="94.14" r="8.11"/><circle class="cls-1" cx="89.46" cy="94.14" r="8.11"/><circle class="cls-1" cx="111.05" cy="94.14" r="8.11"/><path class="cls-1" d="M297.65,390.18H139.29V379.46a11.79,11.79,0,0,1,11.78-11.77H297.65v-7.85H151.07a19.65,19.65,0,0,0-19.63,19.62V398H297.65Z"/><path class="cls-1" d="M483.64,439.16H310.09a16.38,16.38,0,0,1-16.36-16.36V176.1a16.38,16.38,0,0,1,16.36-16.36H483.64A16.38,16.38,0,0,1,500,176.1V422.8A16.38,16.38,0,0,1,483.64,439.16ZM310.09,167.59a8.52,8.52,0,0,0-8.51,8.51V422.8a8.52,8.52,0,0,0,8.51,8.51H483.64a8.52,8.52,0,0,0,8.51-8.51V176.1a8.52,8.52,0,0,0-8.51-8.51Z"/><rect class="cls-1" x="297.65" y="193.98" width="198.42" height="7.85"/><rect class="cls-1" x="297.65" y="397.07" width="198.42" height="7.85"/><rect class="cls-1" x="115.59" y="320.93" width="182.07" height="7.85"/><path class="cls-1" d="M400.5,60.84H57.18a24,24,0,0,0-24,24v143h7.85v-143A16.15,16.15,0,0,1,57.18,68.69H400.5a16.15,16.15,0,0,1,16.13,16.13v78.85h7.85V84.82A24,24,0,0,0,400.5,60.84Z"/><rect class="cls-1" x="115.59" y="282.3" width="182.07" height="7.85"/><path class="cls-1" d="M103.15,439.16H16.36A16.38,16.38,0,0,1,0,422.8V240.3a16.38,16.38,0,0,1,16.36-16.36h86.79a16.38,16.38,0,0,1,16.36,16.36V422.8A16.38,16.38,0,0,1,103.15,439.16ZM16.36,231.79a8.52,8.52,0,0,0-8.51,8.51V422.8a8.52,8.52,0,0,0,8.51,8.51h86.79a8.52,8.52,0,0,0,8.51-8.51V240.3a8.52,8.52,0,0,0-8.51-8.51Z"/><rect class="cls-1" x="3.92" y="250.08" width="111.66" height="7.85"/><rect class="cls-1" x="3.92" y="405.17" width="111.66" height="7.85"/><path class="cls-1" d="M420.24,261.23a2.62,2.62,0,0,1-1.86-4.46l33.27-33.56a2.61,2.61,0,1,1,3.71,3.68L422.1,260.45A2.59,2.59,0,0,1,420.24,261.23Z"/><path class="cls-1" d="M23.4,310.49A2.61,2.61,0,0,1,21.55,306l33.26-33.56a2.62,2.62,0,0,1,3.72,3.69L25.26,309.71A2.59,2.59,0,0,1,23.4,310.49Z"/><path class="cls-1" d="M175.52,216.86a2.62,2.62,0,0,1-1.86-4.46l33.27-33.56a2.62,2.62,0,0,1,3.72,3.69l-33.27,33.56A2.62,2.62,0,0,1,175.52,216.86Z"/><path class="cls-1" d="M349.93,134.75a2.58,2.58,0,0,1-1.84-.76,2.61,2.61,0,0,1,0-3.7l33.26-33.55a2.62,2.62,0,1,1,3.72,3.68L351.79,134A2.61,2.61,0,0,1,349.93,134.75Z"/><path class="cls-1" d="M387,339.91a2.62,2.62,0,0,1-1.86-4.46l66.53-67.11a2.61,2.61,0,1,1,3.71,3.68l-66.53,67.11A2.58,2.58,0,0,1,387,339.91Z"/><path class="cls-1" d="M19.53,356a2.61,2.61,0,0,1-1.85-4.46l66.53-67.11a2.61,2.61,0,1,1,3.71,3.68L21.39,355.18A2.62,2.62,0,0,1,19.53,356Z"/><path class="cls-1" d="M126.28,227.86a2,2,0,0,1-1.39-.56,1.94,1.94,0,0,1,0-2.77l45.2-45.05a2,2,0,0,1,2.79,0,1.93,1.93,0,0,1,0,2.76l-45.19,45.06A2,2,0,0,1,126.28,227.86Z"/><path class="cls-1" d="M291.45,159.13a2.62,2.62,0,0,1-1.86-4.46l59.79-60.31a2.62,2.62,0,1,1,3.71,3.69L293.3,158.36A2.57,2.57,0,0,1,291.45,159.13Z"/></svg>