<svg id="Capa_1" data-name="Capa 1" xmlns="http://www.w3.org/2000/svg" viewBox="0 0 500 500"><defs><style>.cls-1{fill:#f9f5f4;}</style></defs><path class="cls-1" d="M184.69,35l-8.19-5.32a408,408,0,0,0-61.42,162H125A398.34,398.34,0,0,1,184.69,35Z"/><path class="cls-1" d="M176.5,470.08l8.19-5.32A398.25,398.25,0,0,1,125,308.37h-9.87A408,408,0,0,0,176.5,470.08Z"/><path class="cls-1" d="M315.31,464.76l8.19,5.32a408,408,0,0,0,61.38-161.71H375A398.25,398.25,0,0,1,315.31,464.76Z"/><path class="cls-1" d="M323.5,29.68,315.31,35A398.34,398.34,0,0,1,375,191.63h9.88A408,408,0,0,0,323.5,29.68Z"/><path class="cls-1" d="M436.75,313.25H63.25a63.25,63.25,0,0,1,0-126.5h373.5a63.25,63.25,0,0,1,0,126.5ZM63.25,196.51a53.49,53.49,0,0,0,0,107h373.5a53.49,53.49,0,0,0,0-107Z"/><rect class="cls-1" x="62.69" y="116.57" width="373.66" height="9.76"/><rect class="cls-1" x="62.69" y="373.67" width="373.66" height="9.76"/><path class="cls-1" d="M119.93,282.85a6.21,6.21,0,0,1-4-1.19,8.1,8.1,0,0,1-2.42-3.73l-19-53.85a5.19,5.19,0,0,1,.41-4.92c.94-1.34,2.54-2,4.78-2a5.81,5.81,0,0,1,3.83,1.14,7.81,7.81,0,0,1,2.19,3.6l16.4,48.66h-3.64L135.6,222a8.77,8.77,0,0,1,2.28-3.64,5.24,5.24,0,0,1,3.56-1.19,4.9,4.9,0,0,1,3.46,1.19,9.34,9.34,0,0,1,2.19,3.73l16.58,48.48h-3.19l16.67-48.66a8.12,8.12,0,0,1,2.19-3.55,5.49,5.49,0,0,1,3.73-1.19,4.82,4.82,0,0,1,4.29,2,5.28,5.28,0,0,1,.36,4.92L168.5,278a8.3,8.3,0,0,1-2.37,3.64,7.05,7.05,0,0,1-7.84,0,8.29,8.29,0,0,1-2.37-3.73l-15.85-45.2h2.09l-16,45.29a8.43,8.43,0,0,1-2.33,3.64A5.83,5.83,0,0,1,119.93,282.85Z"/><path class="cls-1" d="M228.81,282.85a6.21,6.21,0,0,1-4-1.19,8.1,8.1,0,0,1-2.42-3.73l-19-53.85a5.19,5.19,0,0,1,.41-4.92q1.41-2,4.79-2a5.79,5.79,0,0,1,3.82,1.14,7.81,7.81,0,0,1,2.19,3.6L231,270.55h-3.64L244.49,222a8.66,8.66,0,0,1,2.27-3.64,5.26,5.26,0,0,1,3.56-1.19,4.88,4.88,0,0,1,3.46,1.19,9.34,9.34,0,0,1,2.19,3.73l16.58,48.48h-3.19L286,221.89a8.12,8.12,0,0,1,2.19-3.55,5.52,5.52,0,0,1,3.74-1.19,4.81,4.81,0,0,1,4.28,2,5.28,5.28,0,0,1,.36,4.92L277.38,278a8.3,8.3,0,0,1-2.37,3.64,7.05,7.05,0,0,1-7.84,0,8.29,8.29,0,0,1-2.37-3.73L249,232.73H251L235,278a8.51,8.51,0,0,1-2.32,3.64A5.88,5.88,0,0,1,228.81,282.85Z"/><path class="cls-1" d="M337.69,282.85a6.23,6.23,0,0,1-4-1.19,8,8,0,0,1-2.41-3.73l-19.05-53.85a5.19,5.19,0,0,1,.41-4.92c.95-1.34,2.54-2,4.79-2a5.79,5.79,0,0,1,3.82,1.14,7.64,7.64,0,0,1,2.19,3.6l16.4,48.66h-3.64L353.37,222a8.57,8.57,0,0,1,2.28-3.64,5.22,5.22,0,0,1,3.55-1.19,4.88,4.88,0,0,1,3.46,1.19,9.34,9.34,0,0,1,2.19,3.73l16.58,48.48h-3.19l16.67-48.66a8.12,8.12,0,0,1,2.19-3.55,5.52,5.52,0,0,1,3.74-1.19,4.81,4.81,0,0,1,4.28,2,5.28,5.28,0,0,1,.36,4.92L386.26,278a8.3,8.3,0,0,1-2.37,3.64,7.05,7.05,0,0,1-7.84,0,8.2,8.2,0,0,1-2.36-3.73l-15.86-45.2h2.1l-16,45.29a8.51,8.51,0,0,1-2.32,3.64A5.88,5.88,0,0,1,337.69,282.85Z"/><path class="cls-1" d="M32.36,200.54C54.94,101.18,143.91,26.77,250,26.77s195.06,74.41,217.64,173.77a58.86,58.86,0,0,1,11.92,9.87C460.7,100.74,365,17,250,17S39.3,100.74,20.44,210.41A58.86,58.86,0,0,1,32.36,200.54Z"/><path class="cls-1" d="M467.64,299.46C445.06,398.82,356.09,473.23,250,473.23S54.94,398.82,32.37,299.46a59,59,0,0,1-11.93-9.87C39.3,399.26,135,483,250,483s210.7-83.73,229.56-193.4A58.86,58.86,0,0,1,467.64,299.46Z"/><rect class="cls-1" x="245.12" y="21.89" width="9.76" height="169.74"/><rect class="cls-1" x="245.12" y="308.37" width="9.76" height="169.5"/></svg>