<svg id="Capa_1" data-name="Capa 1" xmlns="http://www.w3.org/2000/svg" viewBox="0 0 265.63 293.09"><defs><style>.cls-1{fill:#303030;}</style></defs><path id="Isotipo" class="cls-1" d="M248.75,227.61C222.81,164.23,182.83,54,182.83,54s-6.27-19.55-16.48-34.06C154.41,3,137.78,3.46,137.78,3.46H77.34s16.31,1.2,33,36.26c14.63,30.79,31.73,73.79,45.77,110.77-32.7,9.93-63.86,26.33-93.08,49-6,4.05-54.5,38.25-44.45,74.32a24.59,24.59,0,0,0,2.1,5.15c3.8,8.35,10.68,14.69,19.52,16.82s18.08-.44,25.32-6.3a24.12,24.12,0,0,0,3.82-3.33c22.91-24.65,3.09-69.69-3.66-83.15,28.89-22.43,59.69-38.63,92-48.4,15.1,40,26.29,71.9,26.29,71.9s14.12,39.08,39.55,56c24,16,59.34,9.88,59.34,9.88S270.85,281.59,248.75,227.61Z" transform="translate(-17.18 -3.46)"/></svg>