<svg id="Iconos" xmlns="http://www.w3.org/2000/svg" viewBox="0 0 230.92 350"><defs><style>.cls-1{fill:#303030;}</style></defs><g id="Luz"><path class="cls-1" d="M251.56,340.68c-16,0-31.3-2.57-43-7.22-22.5-8.95-25.86-22.85-25.86-30.34,0-21.66-8.39-42.89-24.27-61.42-16.2-18.91-24.66-42.5-23.82-66.43.9-25.61,12.46-50,32.56-68.62S214,76.83,242.53,75.22c32.28-1.84,63,8.06,86.48,27.84,23.16,19.51,36.45,47.05,36.45,75.54,0,23-8.25,44.83-23.85,63.05-15.9,18.58-24.3,40.27-24.3,62.71,0,7.32-3.21,20.89-24.66,29.47C281.63,338.25,267,340.68,251.56,340.68ZM250,101.92c-1.86,0-3.73,0-5.62.16-43.4,2.46-78.46,35-79.84,74-.63,18,5.47,35,17.62,49.17,20,23.27,30.49,50.19,30.49,77.83,0,3.09,13.62,10.64,38.87,10.64,23.22,0,35.75-6.67,35.75-9.4,0-28,10.83-56.11,30.51-79.1,11.54-13.48,17.64-29.61,17.64-46.66,0-21.4-9.58-41.26-27-55.91C292.46,109.2,271.89,101.92,250,101.92Z" transform="translate(-134.54 -75)"/><path class="cls-1" d="M291.83,382.78H208.17c-6.56,0-11.9-4.79-11.9-10.67v-10c0-5.89,5.34-10.68,11.9-10.68h83.66c6.56,0,11.9,4.79,11.9,10.68v10C303.73,378,298.39,382.78,291.83,382.78Z" transform="translate(-134.54 -75)"/><path class="cls-1" d="M279.23,425H220.77c-6.56,0-11.9-4.79-11.9-10.68V406c0-5.89,5.34-10.67,11.9-10.67h58.46c6.56,0,11.89,4.78,11.89,10.67v8.31C291.12,420.21,285.79,425,279.23,425Z" transform="translate(-134.54 -75)"/><path class="cls-1" d="M309,195.84c-5.52,0-10-4-10-9,0-22-13.53-41.91-35.32-52-4.91-2.27-6.83-7.68-4.3-12.09s8.57-6.13,13.48-3.85C301.28,132.11,319,158.14,319,186.87,319,191.82,314.48,195.84,309,195.84Z" transform="translate(-134.54 -75)"/></g></svg>