<svg id="Layer_1" data-name="Layer 1" xmlns="http://www.w3.org/2000/svg" viewBox="0 0 512 512"><path d="M376.54,187.12V137c0-66.36-53-121.43-119.36-122.07A120.67,120.67,0,0,0,135.46,135.46v51.66H82.56a16,16,0,0,0-16,16V411a86.11,86.11,0,0,0,86.11,86.11H359.32A86.11,86.11,0,0,0,445.43,411V203.1a16,16,0,0,0-16-16ZM169.9,135.46a86.14,86.14,0,0,1,87.31-86.1c47.29.65,84.89,40.09,84.89,87.39v50.37H169.9ZM411,411a51.66,51.66,0,0,1-51.66,51.67H152.68A51.66,51.66,0,0,1,101,411V221.56H411ZM264.1,376.54H247.9a9.11,9.11,0,0,1-9.12-9.11V316.78a9.12,9.12,0,0,1,9.12-9.12h16.2a9.12,9.12,0,0,1,9.12,9.12v50.65A9.11,9.11,0,0,1,264.1,376.54Z"/></svg>