<svg id="Layer_1" data-name="Layer 1" xmlns="http://www.w3.org/2000/svg" viewBox="0 0 512 512"><path d="M256,256.13A117.73,117.73,0,1,0,138.27,138.4,117.85,117.85,0,0,0,256,256.13Zm0-215.84a98.11,98.11,0,1,1-98.11,98.11A98.22,98.22,0,0,1,256,40.29ZM451.7,481c.29,5.42-2.73,9.93-9.81,10.34A9.82,9.82,0,0,1,432.1,482,176.41,176.41,0,0,0,256,315C162.27,315,84.92,388.37,79.9,482a10,10,0,0,1-10.32,9.28A9.84,9.84,0,0,1,60.29,481C65.87,376.91,151.83,295.39,256,295.39S446.11,376.93,451.7,481Z"/><path d="M69.88,497.62h-.49A16.2,16.2,0,0,1,54,480.68c5.75-107.44,94.47-191.59,202-191.59s196.2,84.14,202,191.55h0c.52,9.57-5.8,16.39-15.73,17h-.36a16.12,16.12,0,0,1-16.08-15.22A170.12,170.12,0,0,0,256,321.28c-90.38,0-165,70.77-169.82,161.1A16.32,16.32,0,0,1,69.88,497.62ZM256,301.68c-100.82,0-184,78.92-189.42,179.66a3.54,3.54,0,0,0,3.34,3.7,3.63,3.63,0,0,0,3.69-3.34c5.2-97,85.32-173,182.39-173a182.69,182.69,0,0,1,182.38,173,3.53,3.53,0,0,0,3.35,3.32c3.22-.24,3.8-1.54,3.68-3.69h0C440,380.6,356.8,301.68,256,301.68Zm0-39.26a124,124,0,1,1,124-124A124.17,124.17,0,0,1,256,262.42ZM256,27A111.43,111.43,0,1,0,367.43,138.4,111.56,111.56,0,0,0,256,27Zm0,215.83A104.4,104.4,0,1,1,360.4,138.4,104.52,104.52,0,0,1,256,242.8Zm0-196.21a91.81,91.81,0,1,0,91.81,91.81A91.91,91.91,0,0,0,256,46.59Z"/></svg>