<svg id="Layer_1" data-name="Layer 1" xmlns="http://www.w3.org/2000/svg" viewBox="0 0 387.07 387.07"><path d="M401.81,128.88a196.24,196.24,0,0,0-21.49-21.08,193.13,193.13,0,0,0-248.62,0,194.82,194.82,0,0,0-21.51,21.1,193.15,193.15,0,0,0,0,254.22,194.82,194.82,0,0,0,21.51,21.1,193.13,193.13,0,0,0,248.62,0,196.24,196.24,0,0,0,21.49-21.08,193.18,193.18,0,0,0,0-254.24Zm-22.39,20A163,163,0,0,1,418.84,241H374.91a202.46,202.46,0,0,0-20.85-75.56q4.21-2.34,8.34-4.87A204.61,204.61,0,0,0,379.42,148.83Zm-22.11-21.11a174.76,174.76,0,0,1-18.72,11.8,203.57,203.57,0,0,0-38.09-40.9A163.08,163.08,0,0,1,357.31,127.72ZM271,114a173.72,173.72,0,0,1,39.29,37.94A171.85,171.85,0,0,1,271,160.11Zm0,76.29a202,202,0,0,0,55.63-12.19A172.78,172.78,0,0,1,344.78,241H271ZM271,271h73.78a172.74,172.74,0,0,1-18.18,62.93A201.81,201.81,0,0,0,271,321.76ZM241,114v46.16a171.09,171.09,0,0,1-39.28-8.24A174,174,0,0,1,241,114Zm0,157v50.75a202.19,202.19,0,0,0-55.6,12.18A172.74,172.74,0,0,1,167.22,271Zm-73.78-30a173,173,0,0,1,18.14-62.94A202.2,202.2,0,0,0,241,190.25V241ZM211.5,98.62a203.6,203.6,0,0,0-38.07,40.87,177.15,177.15,0,0,1-18.71-11.79A163.15,163.15,0,0,1,211.5,98.62Zm-78.91,50.21c5.16,3.95,10.51,7.69,16.06,11.16q4.59,2.85,9.29,5.46A202.41,202.41,0,0,0,137.09,241H93.16A162.9,162.9,0,0,1,132.59,148.83ZM93.16,271h43.92a202.51,202.51,0,0,0,20.86,75.55q-4.71,2.61-9.29,5.46c-5.55,3.47-10.9,7.21-16.06,11.16A162.9,162.9,0,0,1,93.16,271Zm61.56,113.3a177.15,177.15,0,0,1,18.71-11.79,203.91,203.91,0,0,0,38.08,40.87A162.94,162.94,0,0,1,154.72,384.3ZM241,398a174.07,174.07,0,0,1-39.24-37.93A171.14,171.14,0,0,1,241,351.88Zm30,0V351.89a171.08,171.08,0,0,1,39.25,8.2A174,174,0,0,1,271,398Zm29.49,15.35a203.62,203.62,0,0,0,38.1-40.9,174.76,174.76,0,0,1,18.72,11.8A163.12,163.12,0,0,1,300.49,413.38Zm78.93-50.21a204.61,204.61,0,0,0-17-11.74q-4.12-2.54-8.35-4.87A202.57,202.57,0,0,0,374.92,271h43.92A163,163,0,0,1,379.42,363.17Z" transform="translate(-62.47 -62.47)"/></svg>