<svg id="Layer_1" data-name="Layer 1" xmlns="http://www.w3.org/2000/svg" viewBox="0 0 512 512"><path d="M256,458c111.41,0,202-90.6,202-202S367.41,54,256,54,54,144.59,54,256,144.59,458,256,458ZM88.5,272.83h66.8c2.12,56.26,14.78,104.65,34.27,137.84-55-23.7-94.91-75.89-101.11-137.84ZM256,87.66c29.9,0,63.13,63.73,67,151.51H189c3.84-87.78,37.07-151.51,67-151.51Zm67,185.17c-3.84,87.78-37.07,151.51-67,151.51s-63.13-63.73-67-151.51Zm-.58,137.84c19.53-33.19,32.19-81.61,34.28-137.84h66.8A168.77,168.77,0,0,1,322.36,410.67ZM423.5,239.17H356.7c-2.12-56.26-14.78-104.65-34.27-137.84,55,23.7,94.91,75.89,101.11,137.84ZM189.61,101.33c-19.53,33.19-32.19,81.61-34.28,137.84H88.53A168.77,168.77,0,0,1,189.64,101.33Z"/></svg>