<svg id="Capa_1" data-name="Capa 1" xmlns="http://www.w3.org/2000/svg" viewBox="0 0 253 253"><defs><style>.cls-1{fill:none;stroke:#303030;stroke-miterlimit:10;stroke-width:3px;}</style></defs><path class="cls-1" d="M267.68,85.24,234.82,40.85A38,38,0,0,0,204,25H96.05A37.9,37.9,0,0,0,65.29,40.77L32,85.25a37.89,37.89,0,0,0,1.32,45.51l95.6,134A26.82,26.82,0,0,0,150,275h0a27,27,0,0,0,21.29-10.42l95.21-133a37.92,37.92,0,0,0,1.15-46.31ZM226.4,47l32.89,44.44a27.32,27.32,0,0,1,3.52,6.49H200.62L179.1,35.42H204A27.58,27.58,0,0,1,226.4,47Zm-116,50.93L132,35.42h36.14l21.52,62.5ZM190,108.34,150,250.56,110,108.34ZM73.68,46.92A27.54,27.54,0,0,1,96,35.42h24.89L99.42,97.92H37a27.17,27.17,0,0,1,3.37-6.53L73.69,46.92Zm63.51,211.61L41.55,124.46a27.5,27.5,0,0,1-6.11-16.12H99.18l43.41,154.34a14.58,14.58,0,0,1-5.41-4.14Zm25.82-.22a15.13,15.13,0,0,1-5.55,4.3l43.4-154.29h63.72a28.06,28.06,0,0,1-6.32,16.89L163,258.3Z" transform="translate(-23.5 -23.5)"/></svg>