<svg id="Capa_1" data-name="Capa 1" xmlns="http://www.w3.org/2000/svg" viewBox="0 0 253 253"><defs><style>.cls-1{fill:none;stroke:#303030;stroke-miterlimit:10;stroke-width:3px;}</style></defs><path class="cls-1" d="M25,51v67.71H139.58V25H51A26.07,26.07,0,0,0,25,51Zm104.17,57.29H35.42V51A15.64,15.64,0,0,1,51,35.42h78.13ZM160.42,275H249a26.07,26.07,0,0,0,26-26V181.25H160.42Zm10.41-83.33h93.75V249A15.64,15.64,0,0,1,249,264.58H170.83ZM249,25H160.42V160.42H275V51A26.07,26.07,0,0,0,249,25Zm15.62,125H170.83V35.42H249A15.64,15.64,0,0,1,264.58,51ZM25,249a26.07,26.07,0,0,0,26,26h88.54V139.58H25Zm10.42-99h93.75V264.58H51A15.64,15.64,0,0,1,35.42,249Z" transform="translate(-23.5 -23.5)"/></svg>