<svg id="Capa_1" data-name="Capa 1" xmlns="http://www.w3.org/2000/svg" viewBox="0 0 253 253"><defs><style>.cls-1{fill:none;stroke:#303030;stroke-miterlimit:10;stroke-width:3px;}</style></defs><path class="cls-1" d="M150,150h36.84l79.64-80.54a26,26,0,0,0,0-36.82c-9.8-9.84-26.94-9.87-36.84,0L150,113.2Zm10.42-32.53L237,40a16,16,0,0,1,22.09,0,15.63,15.63,0,0,1,0,22.11l-76.6,77.48H160.42Zm72.91,95V132.6l-10.41,10.55V212.5H129.17v31.25a20.84,20.84,0,0,1-41.67,0V56.25a31.08,31.08,0,0,0-8.12-20.83H197.6l9.77-9.89a30.6,30.6,0,0,0-5.29-.53H56.25A31.29,31.29,0,0,0,25,56.25V87.5H77.08V243.75A31.29,31.29,0,0,0,108.33,275H243.75A31.29,31.29,0,0,0,275,243.75V212.5ZM77.08,77.08H35.42V56.25a20.83,20.83,0,0,1,41.66,0Zm187.5,166.67a20.85,20.85,0,0,1-20.83,20.83H131.6a31.1,31.1,0,0,0,8-20.83V222.92h125Z" transform="translate(-23.5 -23.5)"/><line class="cls-1" x1="89.76" y1="60.46" x2="155.41" y2="60.46"/><line class="cls-1" x1="89.76" y1="93.6" x2="126.5" y2="93.6"/><line class="cls-1" x1="89.76" y1="126.74" x2="126.5" y2="126.74"/></svg>